<?xml version="1.0" encoding="utf-8"?>
<!-- Generator: Adobe Illustrator 23.0.2, SVG Export Plug-In . SVG Version: 6.00 Build 0)  -->
<svg version="1.1" id="Calque_1" xmlns="http://www.w3.org/2000/svg" xmlns:xlink="http://www.w3.org/1999/xlink" x="0px" y="0px"
	 viewBox="0 0 281.6 63.5" style="enable-background:new 0 0 281.6 63.5;" xml:space="preserve">
<style type="text/css">
	.st0{fill:#FFFFFF;}
</style>
<g id="layer1" transform="translate(-76.290715,-142.89532)">
	<g id="g43" transform="matrix(0.26458333,0,0,0.26458333,38.931549,83.337617)">
		<g id="g32">
			<path id="path12" class="st0" d="M406.8,402.1V238.2h96.8v20.5h-76.8v50.4h69v20.5h-69V381H509v20.5H406.8L406.8,402.1z"/>
			<path id="path14" class="st0" d="M610.7,402.1l-33.3-43.5l-33.3,43.5h-23.5l45.5-58.2l-47.9-60.2h26.4l32.8,45l33.3-45h25.9
				l-45.5,60.2l43,58.2H610.7z"/>
			<path id="path16" class="st0" d="M666.5,384.5v80.7h-20.1V344.4c0-30.8,23.5-63.6,60.2-63.6c37.2,0,65,23.5,65,62.1
				c0,37.7-28.4,63.6-60.6,63.6C695.3,406.5,674.3,399.6,666.5,384.5L666.5,384.5z M750.6,342.9c0-26.4-17.1-42.1-47.4-40.6
				c-14.7,0.5-37.2,11.2-35.2,48.9c0.5,12.2,13.2,35.2,41.1,35.2C733,386.4,750.6,372.7,750.6,342.9z"/>
			<path id="path18" class="st0" d="M788.7,402.1V283.7h20.1v12.7c9.8-11.2,24.9-15.2,41.1-15.2v21.5c-2.4-0.5-26.4-3.4-41.1,27.9
				v71.9h-20.1V402.1z"/>
			<path id="path20" class="st0" d="M855.2,342.9c0-34.2,24.5-62.1,58.2-62.1c42.1,0,57.7,27.9,57.7,63.6v9.8h-93.9
				c1.5,22.5,21.5,34.2,40.1,33.7c13.7-0.5,23-4.4,32.8-14.2l13.2,13.7c-12.2,11.7-27.9,19.6-47,19.6
				C880.7,406.5,855.2,380.1,855.2,342.9L855.2,342.9z M912,300.8c-19.1,0-33.7,16.6-34.7,34.7h72.9
				C950.1,317.9,937.4,300.8,912,300.8z"/>
			<path id="path22" class="st0" d="M981.4,385.4l14.7-13.2c-0.5,0,7.3,7.8,8.3,8.3c3.4,2.9,6.8,4.9,11.2,5.9
				c12.7,3.4,35.7,2.4,37.7-15.2c1-9.8-6.4-15.2-14.7-18.6c-10.8-3.9-22.5-5.4-33.3-10.3c-12.2-5.4-20.1-14.7-20.1-28.4
				c0-35.7,50.9-41.6,73.8-24.9c1,1,12.2,11.2,11.7,11.2l-14.7,11.7c-7.3-8.8-14.2-13.2-29.8-13.2c-7.8,0-18.6,3.4-20.5,11.7
				c-2.9,11.7,10.3,16.1,19.1,18.6c11.7,2.9,24.5,4.9,34.7,11.2c14.2,8.8,17.6,27.9,12.2,42.5c-5.9,16.1-23.5,22.5-39.1,23
				c-18.6,1-34.7-4.9-47.9-18.1C983.9,387.9,981.4,385.4,981.4,385.4z"/>
			<path id="path24" class="st0" d="M1084.6,385.4l14.7-13.2c-0.5,0,7.3,7.8,8.3,8.3c3.4,2.9,6.8,4.9,11.2,5.9
				c12.7,3.4,35.7,2.4,37.7-15.2c1-9.8-6.4-15.2-14.7-18.6c-10.8-3.9-22.5-5.4-33.3-10.3c-12.2-5.4-20.1-14.7-20.1-28.4
				c0-35.7,50.9-41.6,73.8-24.9c1,1,12.2,11.2,11.7,11.2l-14.7,11.7c-7.3-8.8-14.2-13.2-29.8-13.2c-7.8,0-18.6,3.4-20.5,11.7
				c-2.9,11.7,10.3,16.1,19.1,18.6c11.7,2.9,24.5,4.9,34.7,11.2c14.2,8.8,17.6,27.9,12.2,42.5c-5.9,16.1-23.5,22.5-39.1,23
				c-18.6,1-34.7-4.9-47.9-18.1C1087.1,387.9,1084.6,385.4,1084.6,385.4z"/>
			<g id="g30">
				<path id="path26" class="st0" d="M1180,283.7V271h-4.4v-2.4h11.7v2.4h-4.4v12.7H1180z"/>
				<path id="path28" class="st0" d="M1202,283.7V272l-4.4,11.7h-1l-4.4-11.7v11.7h-2.4v-15.2h3.9l3.9,10.3l3.9-10.3h3.9v15.2H1202z
					"/>
			</g>
		</g>
		<g id="g41">
			<path id="path34" class="st0" d="M270.8,402.1l-14.7-39.1h-79.2l-14.7,39.1h-21l63.6-163.8h23l63.1,163.8H270.8z M215.5,261.7
				l-29.8,81.2h62.1L215.5,261.7z"/>
			<path id="path36" class="st0" d="M304.1,402.1V238.2h20.5v163.8H304.1z"/>
			<path id="path38" class="st0" d="M355.4,402.1V286.2H376v115.9H355.4z"/>
			<path id="XMLID_1_" class="st0" d="M395.5,248.5c0-0.5,0-0.5,0-1c0-0.5,0-0.5,0-1c-15.7-0.5-28.4-13.2-28.9-28.9
				c-0.5,0-1,0-1.5,0c-0.5,0-1,0-1.5,0c-0.5,15.7-13.2,28.4-28.9,28.9c0,0.5,0,0.5,0,1c0,0.5,0,0.5,0,1
				c15.7,0.5,28.4,13.2,28.9,28.9c0.5,0,1,0,1.5,0c0.5,0,1,0,1.5,0C367.1,261.7,379.9,249,395.5,248.5z"/>
		</g>
	</g>
</g>
</svg>
