<svg xmlns="http://www.w3.org/2000/svg" width="285" height="85.8" viewBox="0 0 285 85.8"><defs><style>.a{fill:#fff;fill-rule:evenodd;}</style></defs><g transform="translate(-163.5 -263.1)"><path class="a" d="M340.3,330.2c-16.5,12.2-40.5,18.7-61.2,18.7a110.964,110.964,0,0,1-74.8-28.5c-1.5-1.4-.2-3.3,1.7-2.2a148.57,148.57,0,0,0,131.9,8.1c2.8-1.1,5.1,1.9,2.4,3.9Z"/><path class="a" d="M347.2,322.3c-2.1-2.7-14-1.3-19.3-.6-1.6.2-1.9-1.2-.4-2.2,9.5-6.7,25-4.7,26.8-2.5s-.5,17.8-9.4,25.2c-1.4,1.1-2.7.5-2.1-1C344.8,336.2,349.3,325.1,347.2,322.3Z"/><path class="a" d="M328.2,272.5V266a1.522,1.522,0,0,1,1.6-1.6h29a1.666,1.666,0,0,1,1.7,1.6v5.5c0,.9-.8,2.1-2.2,4.1l-15,21.4c5.6-.1,11.5.7,16.5,3.5a2.979,2.979,0,0,1,1.5,2.5v6.9c0,1-1,2.1-2.1,1.5a33.082,33.082,0,0,0-30.6.1,1.57,1.57,0,0,1-2.1-1.5v-6.6a7.473,7.473,0,0,1,1.1-4.4L345,274.1H329.9a1.666,1.666,0,0,1-1.7-1.6ZM222.5,312.8h-8.8a1.806,1.806,0,0,1-1.6-1.5V266.1a1.666,1.666,0,0,1,1.7-1.6H222a1.63,1.63,0,0,1,1.6,1.5v5.9h.2c2.1-5.7,6.2-8.4,11.6-8.4,5.5,0,9,2.7,11.4,8.4a12.533,12.533,0,0,1,12.2-8.4,12.4,12.4,0,0,1,10.2,5c2.8,3.8,2.2,9.3,2.2,14.2v28.6a1.666,1.666,0,0,1-1.7,1.6H261a1.718,1.718,0,0,1-1.6-1.6v-24c0-1.9.2-6.7-.2-8.5-.7-3-2.6-3.9-5.2-3.9a5.889,5.889,0,0,0-5.3,3.7c-.9,2.3-.8,6.1-.8,8.7v24a1.666,1.666,0,0,1-1.7,1.6h-8.8a1.718,1.718,0,0,1-1.6-1.6v-24c0-5,.8-12.5-5.4-12.5-6.3,0-6.1,7.2-6.1,12.5v24a1.756,1.756,0,0,1-1.8,1.5Zm163-49.3c13.1,0,20.2,11.2,20.2,25.5,0,13.8-7.8,24.8-20.2,24.8-12.8,0-19.8-11.2-19.8-25.2-.1-14.1,7-25.1,19.8-25.1Zm0,9.3c-6.5,0-6.9,8.9-6.9,14.4s-.1,17.3,6.8,17.3c6.8,0,7.2-9.5,7.2-15.3,0-3.8-.2-8.4-1.3-12-1-3.2-3-4.4-5.8-4.4Zm37.1,40h-8.8a1.718,1.718,0,0,1-1.6-1.6V265.9a1.728,1.728,0,0,1,1.7-1.5h8.2a1.71,1.71,0,0,1,1.6,1.3v6.9h.2c2.5-6.2,5.9-9.1,12-9.1a11.645,11.645,0,0,1,10.3,5.3c2.3,3.6,2.3,9.7,2.3,14.1v28.5a1.645,1.645,0,0,1-1.7,1.4H438a1.819,1.819,0,0,1-1.6-1.4V286.8c0-5,.6-12.2-5.5-12.2a5.789,5.789,0,0,0-5.1,3.6,20.76,20.76,0,0,0-1.4,8.6v24.4a1.831,1.831,0,0,1-1.8,1.6ZM305.1,291.2c0,3.4.1,6.3-1.6,9.4a7.077,7.077,0,0,1-6.1,4c-3.4,0-5.4-2.6-5.4-6.4,0-7.5,6.7-8.9,13.1-8.9Zm8.9,21.5a1.808,1.808,0,0,1-2.1.2,22.082,22.082,0,0,1-5.1-5.9c-4.8,4.9-8.3,6.4-14.5,6.4-7.4,0-13.2-4.6-13.2-13.7a14.969,14.969,0,0,1,9.4-14.4c4.8-2.1,11.5-2.5,16.6-3.1v-1.1c0-2.1.2-4.6-1.1-6.4a5.921,5.921,0,0,0-4.9-2.3c-3.4,0-6.4,1.7-7.1,5.3-.2.8-.7,1.6-1.5,1.6l-8.5-.9a1.539,1.539,0,0,1-1.3-1.8c2-10.4,11.3-13.5,19.7-13.5,4.3,0,9.9,1.1,13.3,4.4,4.3,4,3.9,9.4,3.9,15.2v13.7c0,4.1,1.7,5.9,3.3,8.2.6.8.7,1.8,0,2.3-1.9,1.5-5.1,4.3-6.9,5.8ZM189.6,291.2c0,3.4.1,6.3-1.6,9.4a7.077,7.077,0,0,1-6.1,4c-3.4,0-5.4-2.6-5.4-6.4,0-7.5,6.7-8.9,13.1-8.9Zm8.8,21.5a1.808,1.808,0,0,1-2.1.2,22.082,22.082,0,0,1-5.1-5.9c-4.8,4.9-8.3,6.4-14.5,6.4-7.4,0-13.2-4.6-13.2-13.7a14.969,14.969,0,0,1,9.4-14.4c4.8-2.1,11.5-2.5,16.6-3.1v-1.1c0-2.1.2-4.6-1.1-6.4a5.921,5.921,0,0,0-4.9-2.3c-3.4,0-6.4,1.7-7.1,5.3-.2.8-.7,1.6-1.5,1.6l-8.5-.9a1.539,1.539,0,0,1-1.3-1.8c2-10.4,11.3-13.5,19.7-13.5,4.3,0,9.9,1.1,13.3,4.4,4.3,4,3.9,9.4,3.9,15.2v13.7c0,4.1,1.7,5.9,3.3,8.2.6.8.7,1.8,0,2.3-1.9,1.5-5.1,4.3-6.9,5.8Z"/></g></svg>