<?xml version="1.0" encoding="utf-8"?>
<!-- Generator: Adobe Illustrator 23.0.2, SVG Export Plug-In . SVG Version: 6.00 Build 0)  -->
<svg version="1.1" id="Calque_1" xmlns="http://www.w3.org/2000/svg" xmlns:xlink="http://www.w3.org/1999/xlink" x="0px" y="0px"
	 viewBox="0 0 365 51.3" style="enable-background:new 0 0 365 51.3;" xml:space="preserve">
<style type="text/css">
	.st0{fill:#FFFFFF;}
</style>
<path class="st0" d="M179,35.3h-10.3c-3.4,0-6.2-2.7-6.2-6.2v-13h-7.2v13c0,7.9,5.2,13,13,13h17.8v-26h-7.2L179,35.3L179,35.3
	L179,35.3z M100.8,16.1H89.6V7.5h-7.2v22.3c0,6.7,5.9,12.3,12.8,12.3h5.6c7.2,0,13-5.9,13-13S108,16.1,100.8,16.1z M100.5,35.2h-4.6
	c-4,0-6.2-2.6-6.2-6v-6.2h10.7c3.4,0,6.2,2.9,6.2,6.2S103.8,35.2,100.5,35.2z M137.9,16.1h-7.3c-7.2,0-13,5.9-13,13s5.9,13,13,13
	h7.3c7.2,0,13-5.9,13-13S145.1,16.1,137.9,16.1z M137.3,35.3H131c-3.4,0-6.2-2.9-6.2-6.2s2.7-6.2,6.2-6.2h6.3c3.4,0,6.2,2.7,6.2,6.2
	C143.5,32.4,140.8,35.3,137.3,35.3L137.3,35.3z M192.9,7.5h7.2v34.7h-7.2V7.5z M327.8,16.1h-4.3c-7.7,0-12.9,5.9-12.9,13
	c0,7.9,5.4,13,13.3,13h16v-6.7h-15.8c-3.3,0-5.3-1.3-6.2-3.6h21.9v-4.3C340,20.5,334.8,16.1,327.8,16.1z M318.1,26
	c0.9-2.3,2.7-3.7,5.4-3.6h4.3c3.6,0,5.2,1.6,5.2,3.6H318.1z M357.7,16.1c-7.9,0-13,5.2-13,13v13h7.2v-13c0-3.4,2.7-6.2,6.2-6.2h6.9
	V16h-7.3L357.7,16.1L357.7,16.1z M257.6,16.1h-17.8v25.9h7.2V22.9h10.3c3.4,0,6.2,2.7,6.2,6.2v13h7.2v-13
	C270.7,21.9,264.8,16.2,257.6,16.1z M275,27.8c0,7.3,5.9,11.7,13.2,11.6h11v2.4c0,1.4-1,2.3-2.4,2.3h-13.9v6.6h13.6
	c6.4,0,9.9-3.2,9.9-8.9V15.9h-18.3C280.9,15.9,275,20.5,275,27.8L275,27.8z M299.1,22.9v9.7h-10.2c-3.4,0-6.2-1.4-6.2-4.9
	c0-3.4,2.7-4.9,6.2-4.9C288.9,22.8,299.1,22.9,299.1,22.9z M204.2,29c0,7.2,5.9,13,13,13h17.2V15.9h-17.2
	C210.1,15.9,204.2,21.9,204.2,29z M227.3,22.9v12.2h-9.5c-3.4,0-6.2-2.7-6.2-6c0-3.4,2.7-6.2,6.2-6.2H227.3z M45,0.6H24.2
	C10.9,0.6,0,11.5,0,24.9S10.7,49,24.1,49H45c13.3,0,24.1-10.7,24.1-24.1S58.5,0.6,45,0.6 M40.5,42.2h-9c-8.6,0-15.6-7-15.6-15.6
	V14.4c0-6,3.3-11.2,8.3-13.8v10.3h16.3c8.6,0.1,15.5,7,15.5,15.6C55.9,35.2,49,42.1,40.5,42.2"/>
<path class="st0" d="M40.3,19.1h-16v7.3c0,4,3.3,7.3,7.3,7.3h8.7c4,0,7.3-3.3,7.3-7.3S44.4,19.1,40.3,19.1"/>
</svg>
