<?xml version="1.0" encoding="utf-8"?>
<!-- Generator: Adobe Illustrator 23.0.2, SVG Export Plug-In . SVG Version: 6.00 Build 0)  -->
<svg version="1.1" id="Calque_1" xmlns="http://www.w3.org/2000/svg" xmlns:xlink="http://www.w3.org/1999/xlink" x="0px" y="0px"
	 viewBox="0 0 326.1 51.3" style="enable-background:new 0 0 326.1 51.3;" xml:space="preserve">
<style type="text/css">
	.st0{fill:#FFFFFF;}
</style>
<path class="st0" d="M36.3,35.4c-2.6,3.7-6.8,5.8-11.3,5.8c-8,0-14-6.1-14-14.1c0-4,1.5-7.7,4.1-10.2c2.6-2.5,6.1-3.9,9.9-3.9
	c4.5,0,8.7,2.2,11.3,5.8l0.4,0.6l8.3-7.1l-0.4-0.5c-4.9-5.8-12-9.1-19.6-9.1C11.2,2.8,0,13.7,0,27.1c0,13.4,11.2,24.3,25,24.3
	c7.5,0,14.7-3.3,19.6-9l0.4-0.5l-8.3-7.1L36.3,35.4z"/>
<path class="st0" d="M85.2,0.7v49.4h-9.2V48c-2.9,1.7-6.6,2.8-10.4,2.8c-9.9,0-18-7.5-18-18.4c0-11.1,8.1-18.4,18-18.4
	c3.6,0,7.2,0.9,10.4,2.7V0.7H85.2z M76.1,39.4V25.1c-2.2-1.8-5.2-3-8.7-3c-6.1,0-10.6,4.4-10.6,10.2c0,6,4.5,10.2,10.6,10.2
	C70.8,42.5,73.9,41.3,76.1,39.4z M93.1,17.4h9.1v32.7h-9.1V17.4z M111.6,40.5c4.4,1.9,7.7,2.9,12.2,2.9c4.2,0,5.8-1.6,5.8-3.4
	c0-2-2-3-7.5-4.1c-7.7-1.7-13.2-4.2-13.2-11.1c0-6.4,5.3-10.9,13.6-10.9c5.6,0,10,1.3,13.9,2.9l-3,6.7c-3.5-1.3-7.5-2.3-11.1-2.3
	c-3.5,0-5.2,1.2-5.2,3.1c0,2,2.2,2.9,7.9,4.1c8.3,1.7,13,4.6,13,11.1c0,6.8-5.2,11.2-14.3,11.2c-6.2,0-10.2-0.8-15.4-3.4L111.6,40.5
	z M175.1,43.5c-3.2,4.4-8.3,7.1-13.8,7.1c-10.7,0-19.5-8.2-19.5-18.3c0-10.2,8.7-18.4,19.5-18.4c5.7,0,10.7,2.8,13.9,7.1l-5.9,5.4
	c-1.8-2.7-4.8-4.3-8-4.3c-5.8,0-10.5,4.6-10.5,10.2c0,5.6,4.7,10.2,10.5,10.2c3.2,0,6.2-1.7,8-4.4L175.1,43.5z M216.8,32.3
	c0,10.2-8.7,18.3-19.5,18.3s-19.5-8.2-19.5-18.3c0-10.2,8.7-18.4,19.5-18.4S216.8,22.1,216.8,32.3z M207.8,32.3
	c0-5.6-4.6-10.2-10.5-10.2c-5.8,0-10.5,4.6-10.5,10.2c0,5.6,4.7,10.2,10.5,10.2C203.1,42.5,207.8,37.9,207.8,32.3L207.8,32.3z
	 M256.2,14.8v35.3h-9.1v-2.4c-2.7,1.8-6,2.9-9.7,2.9c-10.4,0-15.2-4.8-15.2-16.4V14.8h9.1v19.4c0,5.5,2.7,8.2,7.7,8.2
	c3.3,0,6-1,8.1-2.8V14.8L256.2,14.8L256.2,14.8z M297.6,30.3v19.9h-9.1V30.3c0-5.5-2.7-8.2-7.7-8.2c-3.2,0-5.8,1-7.9,2.8v25.2h-9.1
	V14.5h9.1v2.2c2.6-1.8,5.9-2.9,9.5-2.9C292.8,13.9,297.6,18.8,297.6,30.3z M316.2,22.1v12.6c0,6.4,1,8.2,5.6,8.2
	c1.6,0,3-0.2,4.2-0.3v6.8c-0.4,0.1-3.1,1.3-8.3,1.3c-6,0-10.7-3.7-10.7-11.2V22.1h-5v-7.5h5V0.7h9.2v13.8h10v7.5L316.2,22.1z"/>
<path class="st0" d="M92.7,5.4c0-3,2.4-5.4,5.2-5.4s5.2,2.4,5.2,5.4s-2.3,5.3-5.2,5.3C95.1,10.7,92.7,8.3,92.7,5.4z"/>
</svg>
