<?xml version="1.0" encoding="utf-8"?>
<!-- Generator: Adobe Illustrator 23.0.2, SVG Export Plug-In . SVG Version: 6.00 Build 0)  -->
<svg version="1.1" id="Calque_1" xmlns="http://www.w3.org/2000/svg" xmlns:xlink="http://www.w3.org/1999/xlink" x="0px" y="0px"
	 viewBox="0 0 248.4 99.5" style="enable-background:new 0 0 248.4 99.5;" xml:space="preserve">
<style type="text/css">
	.st0{fill:#FFFFFF;}
</style>
<path class="st0" d="M32.1,21.7C14.6,21.7,0,29.1,0,51.6c0,17.8,9.8,28.9,32.6,28.9c26.8,0,28.5-17.6,28.5-17.6h-13
	c0,0-2.8,9.5-16.3,9.5c-11,0-18.9-7.4-18.9-17.9h49.6v-6.5C62.4,37.6,55.9,21.7,32.1,21.7L32.1,21.7z M31.7,30.1
	c10.5,0,17.6,6.4,17.6,16.1H13.1C13.1,35.9,22.5,30.1,31.7,30.1z"/>
<path class="st0" d="M62.4,0v69.3c0,3.9-0.3,9.5-0.3,9.5h12.4c0,0,0.4-4,0.4-7.6c0,0,6.1,9.6,22.7,9.6c17.5,0,29.4-12.2,29.4-29.6
	c0-16.2-10.9-29.2-29.4-29.2c-17.3,0-22.6,9.3-22.6,9.3V0H62.4z M94.5,30.4c11.9,0,19.5,8.8,19.5,20.7c0,12.7-8.7,21-19.4,21
	c-12.7,0-19.5-9.9-19.5-20.9C75.1,41,81.2,30.4,94.5,30.4L94.5,30.4z"/>
<path class="st0" d="M157.8,21.7c-26.4,0-28,14.4-28,16.7h13.1c0,0,0.7-8.4,14-8.4c8.7,0,15.4,4,15.4,11.6v2.7h-15.4
	c-20.4,0-31.2,6-31.2,18.1c0,11.9,10,18.4,23.4,18.4c18.4,0,24.3-10.1,24.3-10.1c0,4,0.3,8,0.3,8h11.7c0,0-0.5-4.9-0.5-8.1V43.4
	C185,25.5,170.6,21.7,157.8,21.7z M172.3,52.5v3.6c0,4.7-2.9,16.5-20.1,16.5c-9.4,0-13.4-4.7-13.4-10.1
	C138.9,52.5,152.4,52.5,172.3,52.5L172.3,52.5z"/>
<path class="st0" d="M177.9,24h14.8l21.2,42.4L235,24h13.4l-38.5,75.5h-14L207,78.5L177.9,24L177.9,24z"/>
</svg>
