<svg xmlns="http://www.w3.org/2000/svg" width="116.236" height="116.236" viewBox="0 0 116.236 116.236"><defs><style>.a{fill:#fff;}</style></defs><g transform="translate(-230.823 -230.836)"><path class="a" d="M1395.238,975.781c-.982.535-4.113.945-6.443,1.114-2.458.179-6.2.291-6.206,3.016,0,1.626,1.926,2.994,5.267,3,6.769.018,7.956-4.2,7.964-6.923C1395.822,975.474,1395.7,975.529,1395.238,975.781Z" transform="translate(-1086.088 -702.289)"/><path class="a" d="M1851.2,842.969c-4.462-.013-8.087,3.369-8.1,7.247s3.466,7.034,7.929,7.045a8.393,8.393,0,0,0,6.985-3.458h4.546l.085-.5h0l1.128-6.858h-5.993A8.358,8.358,0,0,0,1851.2,842.969Z" transform="translate(-1520.344 -577.227)"/><path class="a" d="M247.325,230.836l-5.2,31.419v.067h2.5v-.588c0-4.476,1.091-8.968,11.419-8.968,9.345,0,11.242,3.671,11.793,7.1h-5.977c-.556-1.628-1.649-3.5-5.781-3.5-3.59,0-5.476,1.723-5.476,5.38v.551h17.225v3.023c.541-.921,2.245-3.5,9.334-3.5,8.908,0,11.562,4.219,11.552,8.042-.012,4.307,0,13.5,0,13.5h-5.981V272.486c0-3.668-2-6.327-7.429-6.327-5.318,0-7.515,2.5-7.515,6.2v11.013h-5.969V266.161H250.57v17.2h-5.978V266.15H241.5l-.018,0-10.663,64.423,99.734,16.5,10.962-66.257c-2.4,2.055-6.073,3.076-10.838,3.076-8.437,0-13.886-3.927-13.886-10.916,0-6.817,4.8-11.085,14.075-11.085,6.493,0,10.786,2.265,12.762,6.154l3.427-20.706ZM315.7,283.368h-5.992V280.4c-1.4,1.491-3.29,3.112-9.268,3.1-5.362-.015-10.414-1.171-10.4-6.358.012-4.263,1.816-4.961,10.828-5.772,6.716-.6,8.869-.591,8.875-2.833.006-2.2-2.089-3.478-6.22-3.489-4.923-.014-6.115,1.909-6.517,3.841h-6.02c0-3.956,3.215-7.194,11.887-7.194,6.021,0,12.826.572,12.826,8.4Z"/></g></svg>