<?xml version="1.0" encoding="utf-8"?>
<!-- Generator: Adobe Illustrator 23.0.2, SVG Export Plug-In . SVG Version: 6.00 Build 0)  -->
<svg version="1.1" id="Calque_1" xmlns:sketch="http://www.bohemiancoding.com/sketch/ns"
	 xmlns="http://www.w3.org/2000/svg" xmlns:xlink="http://www.w3.org/1999/xlink" x="0px" y="0px" viewBox="0 0 220 524.4"
	 style="enable-background:new 0 0 220 524.4;" xml:space="preserve">
<style type="text/css">
	.st0{fill-rule:evenodd;clip-rule:evenodd;fill:#231F1F;}
	.st1{fill-rule:evenodd;clip-rule:evenodd;fill:#414042;}
	.st2{fill:none;stroke:#58595B;stroke-width:2;}
</style>
<path class="st0" d="M220,106.5V35.1C220,15.7,206.1,0,189,0H31C13.9,0,0,15.7,0,35.1v23.7v22.4v25.3v39.6v9.3V195v294.3
	c0,19.4,13.9,35.1,31,35.1h157.9c17.2,0,31-15.7,31-35.1V146.1L220,106.5L220,106.5z M212.8,463.9c0,1.1-0.8,2.1-1.8,2.1H8.9
	c-1,0-1.8-0.9-1.8-2.1V50.1C7.1,49,7.9,48,8.9,48h202c1,0,1.8,0.9,1.8,2.1L212.8,463.9L212.8,463.9z"/>
<g>
	<path class="st1" d="M89.6,494.7c0-11.3,9.2-20.4,20.4-20.4c11.3,0,20.4,9.1,20.4,20.4s-9.2,20.4-20.4,20.4
		C98.7,515,89.6,505.9,89.6,494.7L89.6,494.7L89.6,494.7z"/>
	<path class="st2" d="M89.6,494.7c0-11.3,9.2-20.4,20.4-20.4c11.3,0,20.4,9.1,20.4,20.4s-9.2,20.4-20.4,20.4
		C98.7,515,89.6,505.9,89.6,494.7L89.6,494.7L89.6,494.7z"/>
</g>
</svg>
