<?xml version="1.0" encoding="utf-8"?>
<!-- Generator: Adobe Illustrator 23.0.2, SVG Export Plug-In . SVG Version: 6.00 Build 0)  -->
<svg version="1.1" xmlns="http://www.w3.org/2000/svg" xmlns:xlink="http://www.w3.org/1999/xlink" x="0px" y="0px"
	 viewBox="0 0 720 1416" style="enable-background:new 0 0 720 1416;" xml:space="preserve">
<style type="text/css">
	.st0{fill:#0B0D0C;}
	.st1{fill:#B2B1B2;}
	.st2{fill:#FCFCFC;}
	.st3{fill:#E0DEDF;}
	.st4{fill:#E8E6E9;}
	.st5{fill:#060606;}
	.st6{fill:#626162;}
	.st7{fill:#3A3A38;}
	.st8{fill:#181716;}
	.st9{fill:#212121;}
	.st10{fill:#3C3B3C;}
	.st11{fill:#636363;}
	.st12{fill:#A3A3A3;}
	.st13{fill:#4B4B4B;}
	.st14{fill:#5D5C5F;}
	.st15{fill:#63615F;}
	.st16{fill:#424342;}
	.st17{fill:#2E2D2E;}
	.st18{fill:#313131;}
	.st19{fill:#474646;}
	.st20{fill:#C4C4C3;}
	.st21{fill:#898988;}
	.st22{fill:#6E6E6E;}
	.st23{fill:#585858;}
	.st24{fill:#141414;}
	.st25{fill:#A2A1A0;}
	.st26{fill:#8A898B;}
	.st27{fill:#959594;}
	.st28{fill:#525252;}
	.st29{fill:#9C9B9A;}
	.st30{fill:#151515;}
	.st31{fill:#717172;}
	.st32{fill:#BDBDC1;}
	.st33{fill:#BDBCBC;}
	.st34{fill:#FEFEFE;}
	.st35{fill:#DADADC;}
	.st36{fill:#1D1E1F;}
	.st37{fill:#222322;}
	.st38{fill:#FDFEFE;}
	.st39{fill:#303335;}
	.st40{fill:#AAAFAD;}
	.st41{fill:#0B0A09;}
	.st42{fill:#555A5B;}
	.st43{fill:#D3D6D4;}
	.st44{fill:#767777;}
	.st45{fill:#010101;}
	.st46{fill:#020202;}
	.st47{fill:#2D2D2D;}
	.st48{fill:#808081;}
	.st49{fill:#FBFDFD;}
	.st50{fill:#D7D5D5;}
	.st51{fill:#2C2C2C;}
	.st52{fill:#5E5E5E;}
	.st53{fill:#ECEDED;}
	.st54{fill:#696A66;}
	.st55{fill:#555659;}
	.st56{fill:#D5D4D4;}
	.st57{fill:#DDDFE0;}
	.st58{fill:#040404;}
	.st59{fill:#B8B7BA;}
	.st60{fill:#1F2321;}
	.st61{fill:#2C2B2B;}
	.st62{fill:#1A1C1D;}
	.st63{fill:#E2E3E2;}
	.st64{fill:#D3D2D1;}
	.st65{fill:#C3C3C3;}
	.st66{fill:#212020;}
	.st67{fill:#868A87;}
	.st68{fill:#CBCAC9;}
	.st69{fill:#A9A8AB;}
	.st70{fill:#8C8C91;}
	.st71{fill:#46464B;}
	.st72{fill:#040505;}
	.st73{fill:#D7D6D8;}
	.st74{fill:#7F7C79;}
	.st75{fill:#171516;}
	.st76{fill:#B9B9BA;}
	.st77{fill:#ABAAA8;}
	.st78{fill:#CCCDCE;}
	.st79{fill:#DCD8D3;}
	.st80{fill:#A0A0A1;}
	.st81{fill:#1C1C1B;}
	.st82{fill:#BEBFBD;}
	.st83{fill:#3E3D3E;}
	.st84{fill:#4B4C4D;}
	.st85{fill:#4B4C49;}
	.st86{fill:#171717;}
	.st87{fill:#161515;}
	.st88{fill:#2A2A2A;}
	.st89{fill:#454545;}
	.st90{fill:#787978;}
	.st91{fill:#1D1D1E;}
	.st92{fill:#B6B7B7;}
	.st93{fill:#E1E1E0;}
	.st94{fill:#CACACA;}
	.st95{fill:#090909;}
	.st96{fill:#0C0C0C;}
	.st97{fill:#191919;}
	.st98{fill:#001830;}
	.st99{fill:#0059A3;}
</style>
<g id="Iphone">
	<g>
		<path class="st0" d="M557,14.6c19.8,0.3,39.8-1,59.4,2.7c17,2.8,33.6,9.3,47.2,20.1c20.8,16,33.4,40.8,36.8,66.6
			c1.2,14.4,2.6,28.9,1.9,43.4c-0.7,0-2.1,0.1-2.8,0.1c0.4-22.1,0.9-44.9-7.5-65.8c-1.7-5.7-4.6-10.9-7.8-15.8
			c-1.2-1.9-2.5-3.7-3.8-5.5c-5.3-9.7-13.5-17.6-22.4-24c-1.1-0.6-2.1-1.3-3.1-1.8c-18.2-11.2-39.5-16.8-60.7-16.9
			c-60-0.4-120-0.2-180-0.3c-82-0.1-164-0.1-246-0.1c-20.9,0.6-42.3-1.5-62.9,3.2c-1,0.1-2.1,0.3-3.1,0.4
			c-6.8,0.9-13.2,3.7-19.6,5.9c-8.2,2.9-15.8,7.4-22.9,12.3c-0.9,0.6-1.8,1.3-2.7,1.9c-7.1,5.6-13.2,12.6-17.1,20.7
			c-4.1,5-7,10.7-9.6,16.6c-2.5,6.3-4.2,12.8-5.7,19.4c-4.3,16.3-3.6,33.2-3.7,49.9c-0.9,0.2-1.8,0.3-2.7,0.5
			c-1.3-9.9,0.6-19.8,0.7-29.8c0.3-7.4,2.2-14.6,2.5-22c2.3-12.3,7.1-24.3,13.8-34.9C47.8,40.7,68.7,26,91.9,19.8
			c2.4-0.6,4.8-1.2,7.2-1.7c19.3-4.3,39.2-3.5,58.9-3.5C291,14.6,424,14.6,557,14.6z"/>
		<path class="st1" d="M105.2,20.3c20.6-4.7,41.9-2.5,62.9-3.2c82,0,164,0,246,0.1c60,0.1,120-0.1,180,0.3
			c21.3,0.1,42.6,5.7,60.7,16.9c-5.4,0.1-10.7-1.4-16.2-1.1c1.4-0.6,2.9-1.3,4.3-1.9c-9.9-6.3-21.2-10.6-32.9-11.6
			c-9.6-0.8-19.3-1.3-28.9-1.2c-80.3,0-160.7,0.1-241-0.1c-4.2-0.1-8.4-0.1-12.6,0.2c-11.5-0.3-23.1-0.6-34.5,0.7
			c-16.3-0.3-32.7,0.7-48.9-0.8c-5.4-0.1-10.7,1.2-16.1,0.9c-11.6-0.3-23.3,0.6-34.9-0.8c-7.4,0-14.7-0.3-22,0.8
			c-16.7,0.2-33.4-0.2-50.1,0.2C115.7,19.9,110.4,21,105.2,20.3z"/>
		<path class="st1" d="M82.4,26.6c6.5-2.2,12.8-5,19.6-5.9l-1.1,1c-6.1,1.6-11.4,5.2-17.5,6.9c-5,1.6-9.6,4.2-14.5,6
			c1.2,0.1,2.4,0.1,3.5,0.2c-4.2,1.8-8.7,2.8-13.1,4C66.7,33.9,74.2,29.4,82.4,26.6z"/>
		<path class="st2" d="M105.2,20.3c5.3,0.7,10.5-0.4,15.7-0.7c16.7-0.4,33.4,0,50.1-0.2c7.3-1,14.7-0.8,22-0.8
			c11.6,1.4,23.3,0.6,34.9,0.8c5.4,0.3,10.7-1,16.1-0.9c16.3,1.5,32.6,0.6,48.9,0.8c11.4-1.3,23-1,34.5-0.7c7,3,14.9,1.3,22.2,2.4
			c6.1-0.3,12.2-0.6,18.4-0.4c4.6-0.2,9.1,1.3,13.7,0.7c3.7-0.4,7.5-0.9,11.2-0.8c18.3,0.3,36.7,0.2,55,0c3.7-0.1,7.2,1,10.9,0.6
			c9.3-0.9,18.7-0.3,28.1-0.4c12.7,0,25.3,0.1,38-0.1c12.3,0.1,24.7,0.3,37-0.5c18,0.3,36.2-1.3,54,2c5.6,1.3,11.8,3.7,15,8.8
			c-20.3-6.6-41.9-6.4-63-6.5c-142,0-284,0-426,0c-18.6,0.2-37.7,0.9-55.4,7.3c0.1-0.4,0.1-1.2,0.2-1.7c2.6-1.3,5.6-1.6,8-3.2
			c2.2-1.5,4.3-3.2,6.2-5.1l1.1-1C103.1,20.5,104.1,20.4,105.2,20.3z"/>
		<path class="st2" d="M692.4,156.4c1.7,0.2,3.4,0.5,5.1,0.7c0,26-0.2,51.9,0,77.9c0.2,5.3,1.4,10.7,0.7,16.1
			c-0.8,5.3-0.8,10.6-0.7,15.9c-0.1,25.7,0.3,51.4-0.2,77c-0.3,11.3,0.5,22.7-0.6,34c1.4,6.3-0.7,12.7,0,19c0.7,4.3-0.3,8.6-0.2,13
			c0.1,8.7,0,17.4,0,26.1c-0.4,8,1.2,15.9,0.8,24c0.5,9.1-0.6,18.4,0.9,27.3c0.5,3.9,0.3,7.8,0.3,11.7c0,27.5,0,55-0.1,82.5
			c-1.4-2.7-1.9-5.7-2.1-8.6c-0.9,23-0.5,46.1-0.7,69.1c0.1,15.3-0.2,30.7,0.4,46c-0.4,18-0.8,36,0.1,53.9c0.3,7.7-0.1,15.4,0.3,23
			c1,13.3,0.8,26.7,0.6,40c-1.6,19.9-0.4,40-1.3,60c-0.2,7.7-0.1,15.4-0.2,23.1c1.2,25.7,0.2,51.3,0.8,77c-0.9,29,0.3,58-0.3,86.9
			c0,11.3-0.7,22.7-0.5,34c-0.1,13,1,26,0.7,39.1c0.2,15-1.9,30-0.2,45c0.5,27-0.4,54,0.2,81.1c0,2.6-0.1,5.2-0.2,7.8l-1.4,0.1
			c-0.5,0-1.6,0.1-2.1,0.2c-0.3,3-0.2,6,0,9c1.4,0.4,2.9,0.7,4.3,1.1c0.7,14,0.1,28.1,0.5,42.2c0,0.2-0.1,0.7-0.1,1
			c-3,3.4-4.2,9.4-9.4,10.1c4.3-17.8,4.4-36.2,4.3-54.4c0-2.8,0-5.6,0-8.4c0.1-49.6,0-99.2,0.1-148.7
			C692.4,792.8,692.5,474.6,692.4,156.4z"/>
		<path class="st2" d="M568,1391.2c21.4-0.1,43.5,0.2,64-6.9c1,0.5,1.9,1.1,2.9,1.7c-6.6,6.5-16.5,5.7-24.9,7.8
			c-22.1,2.7-44.5,1.1-66.7,1.6c-3.1-0.4-6.2-0.8-9.3-0.6c-15.6,0.8-31.3,0.2-47,0.4c-24.3,0.2-48.6-1.3-72.9,0.3
			c-11.7,0.8-23.4-0.3-35.1,0c-12.3,0-24.7,0-37,0.1c-10.3,0.7-20.7,0-30.9-1c-14.7-0.3-29.4-0.3-44.1-0.2c-15,0.2-30,1.3-45,0.9
			c-7.4,0.2-14.6-1-22-0.9c-14.3,0.1-28.7-0.1-43,0c-14.8-0.2-29.6,1.1-44.4-0.1c-7.6-1.1-15.4-2.1-22.2-5.7
			c-1.8-0.8-2.8-2.5-2.8-4.4c18.4,6.3,38.1,6.9,57.4,7C286,1391.3,427,1391.2,568,1391.2z"/>
		<path class="st3" d="M327.5,18.7c4.2-0.3,8.4-0.3,12.6-0.2c80.3,0.1,160.7,0,241,0.1c9.7-0.1,19.3,0.4,28.9,1.2
			c11.7,1,23,5.3,32.9,11.6c-1.4,0.7-2.8,1.3-4.3,1.9l-0.9,0c-2.2-0.8-4.4-1.6-6.7-2.4c-3.2-5.1-9.4-7.5-15-8.8
			c-17.8-3.4-36-1.7-54-2c-12.3,0.9-24.6,0.6-37,0.5c-12.7,0.2-25.3,0.1-38,0.1c-9.4,0.1-18.7-0.4-28.1,0.4
			c-3.7,0.5-7.3-0.7-10.9-0.6c-18.3,0.1-36.7,0.2-55,0c-3.8-0.1-7.5,0.4-11.2,0.8c-4.6,0.6-9.1-0.9-13.7-0.7
			c-6.1-0.2-12.2,0.2-18.4,0.4C342.3,20,334.5,21.7,327.5,18.7z"/>
		<path class="st4" d="M83.5,28.6c6.1-1.7,11.4-5.3,17.5-6.9c-1.9,1.9-4,3.6-6.2,5.1c-2.4,1.6-5.4,1.9-8,3.2
			c-0.1,0.4-0.1,1.3-0.2,1.7c-2.2,0.8-4.4,1.7-6.5,2.5c-2.5,0.2-5,0.3-7.5,0.6c-1.2-0.1-2.4-0.1-3.5-0.2
			C73.9,32.8,78.5,30.2,83.5,28.6z"/>
		<path class="st5" d="M86.6,31.7c17.7-6.4,36.8-7.1,55.4-7.3c142,0,284,0,426,0c21.1,0,42.7-0.1,63,6.5c2.2,0.8,4.4,1.6,6.7,2.4
			c5,2.4,10.2,4.7,14.7,8c1,0.7,2,1.4,3,2.1c6.4,4.6,12,10.2,16.9,16.4c3.1,4.1,5.7,8.5,8.1,13c1.4,2.8,2.7,5.7,3.9,8.6
			c1.5,4.1,2.8,8.3,3.9,12.5c4.3,17.5,4.2,35.7,4.3,53.6c0.3,3,0.1,6-0.1,8.9c0.1,318.2,0,636.4,0,954.6c0,49.6,0,99.2-0.1,148.7
			c-2.3-1.6-1.8-4.4-1.9-6.7c0.2-136.3,0-272.7,0.1-409c0.3-28.3-0.4-56.6,0-85c0.2-46.7-0.1-93.3-0.1-140
			c-0.1-14.7,0.4-29.4-0.6-44c-0.5-9,0.3-18,0-27.1c0.9-11.6,0-23.3,0.5-34.9c0.6-106,0-212.1,0.2-318.1c0-2.9,0-5.7-0.1-8.6
			c0.9-10.8-1.3-21.8,1.5-32.4c0.6-3.4-0.5-6.7-1.3-10c-1-18.5,0-37.6-6-55.4c-4.5-17.5-16.1-32.7-30.5-43.4
			c-5.3-4-11-7.7-17.2-10.1c-5.1-1.8-10.1-4.1-15.5-4.9c-21.5-4.8-43.6-3.9-65.5-4.1c-75.7-0.1-151.3-0.2-227,0
			C275,26,221,26,167,26.2c-20.9,0.1-41.9-0.7-62.6,2.9c-9.8,1.4-19.1,4.8-27.8,9.3c-4.7,2.2-8.9,5.4-12.9,8.7
			c1.2,0.9,2.4,1.8,3.5,2.8C51.8,61.3,41.8,79.1,37.6,97.7c-1.2-4.7,0.6-9.4,1-14.1c-5.9,7.8-5.6,18.3-7,27.6
			c-2.1,13.2-2,26.5-1.7,39.8c0,15.7,0.2,31.3,0.1,47c-0.7,22.7,0.5,45.5-0.2,68.2c-0.2,49.9-0.1,99.9-0.1,149.8
			c0.3,26.3,0.1,52.6,0.1,78.8c0.2,12.7-0.1,25.4,0,38.2c-0.3,53.7,0.1,107.4-0.1,161.1c0.5,70-0.3,140,0.1,210
			c0.4,7.3,0.4,14.6,0,22c-0.3,74.3,0,148.6,0,222.9c0.2,22.1-0.3,44.3,0.4,66.4c-0.9,12.5,0.8,25,0.1,37.5
			c-0.6,0.3-1.8,0.9-2.4,1.2c0.1-365.7,0-731.4,0-1097.1c0.1-26-1.3-53.1,8.8-77.7c1.6-3.6,3.3-7.1,5.2-10.5
			C46.5,61,52.2,53.9,59,47.9c6.3-5.6,13.5-10,21-13.7C82.3,33.4,84.4,32.5,86.6,31.7z"/>
		<path class="st6" d="M104.5,29.1c20.6-3.6,41.7-2.8,62.6-2.9c54-0.1,108-0.1,162-0.1c75.6-0.1,151.3-0.1,227,0
			c21.9,0.2,44-0.7,65.5,4.1c-2.4,0.7-4.8,1.3-7.2,1.6c-7.7-0.9-15.5-1.5-23.3-2.1c-149.3,0.4-298.7,0.3-448,0
			c-6.1,0.1-12.3-0.3-18.3,0.5c-4,0.4-8.1,0.5-12.1,0.7C109.8,30.7,106.9,30.6,104.5,29.1z"/>
		<path class="st7" d="M76.7,38.4c8.7-4.6,18.1-7.9,27.8-9.3c2.4,1.5,5.3,1.6,8,1.8c-7.8,2-16,2.9-23.6,5.8
			C85,37.8,80.7,41.1,76.7,38.4z"/>
		<path class="st8" d="M112.5,30.9c4-0.2,8.1-0.3,12.1-0.7c1.2,0.4,2.4,0.8,3.5,1.2c-3.9,0.4-7.9,0.6-11.8,0.9
			c-9.5,0.8-19,2.8-27.9,6.4c-1.5,0.6-2.9,1.2-4.4,1.8c0.1,4.4,4.1,6.6,8.1,6.9c-3.3,1.2-6.7,2.6-10.3,2.9c-0.3-1.8-0.9-3.6-1.9-5.1
			c0.2-0.3,0.5-0.8,0.6-1.1c0.7-1.1,1.4-2.1,2.2-3.1c-5.5,2.4-10.6,5.5-15.4,9c-1.2-0.9-2.4-1.8-3.5-2.8c4-3.3,8.2-6.4,12.9-8.7
			c4,2.6,8.3-0.6,12.3-1.7C96.5,33.8,104.7,32.9,112.5,30.9z"/>
		<path class="st9" d="M124.6,30.2c6.1-0.8,12.2-0.3,18.3-0.5c149.3,0.3,298.7,0.3,448,0c7.8,0.5,15.5,1.2,23.3,2.1
			c7.9,2.4,15.9,4.3,23.7,6.9c-0.3-1.2-0.7-2.4-1-3.6c6.3,2.4,11.9,6,17.2,10.1c-1.2,1-2.4,1.9-3.6,2.9c-4-2.7-8.3-5.3-12.8-7.1
			c0.9,1.4,1.9,2.8,3.2,3.8l-0.9,0.7c-1.5,1.8-2.1,4.1-2.8,6.2c-6.5-0.2-12.4-3.7-18.6-5.3c6.2-0.2,13.4-0.6,17.4-6.1
			c-1.6-0.7-3.2-1.3-4.8-1.9c-8.9-3.4-18.2-5.6-27.7-6.2c-18.8-1.8-37.7-1.1-56.6-1.3c-30.2,0.1-60.4-0.2-90.6,0.1
			c-46.4,0.4-92.9-0.1-139.3,0.2c-17.1-0.1-34.3,0.1-51.4-0.2c-37.2-0.3-74.4,0-111.7-0.1c-8.6,0-17.2-0.1-25.8,0.4
			C127,31,125.8,30.6,124.6,30.2z"/>
		<path class="st9" d="M605.1,1385c5.8-0.4,11.5-2.2,17.3-0.9c-4.7,2.5-10.2,2.7-15.4,3.5c-15.6,2-31.3,1.6-46.9,1.7
			c-27.4-0.1-54.8,0-82.1,0c-22.8-0.1-45.6,0.2-68.5-0.7c5.3-2.7,11.4-0.5,16.9-2.3c7.2-0.6,14.4-0.2,21.6-0.3c30.3,0,60.6,0,91,0.1
			C561,1385.8,583.1,1386.8,605.1,1385z"/>
		<path class="st10" d="M621.5,30.2c5.4,0.9,10.4,3.1,15.5,4.9c0.3,1.2,0.7,2.4,1,3.6c-7.8-2.7-15.8-4.6-23.7-6.9
			C616.7,31.5,619.1,30.9,621.5,30.2z"/>
		<path class="st10" d="M669.5,1361.4c4.5-3.6,8.7-7.6,12.5-11.9c-3.3,7.9-7.3,15.7-14,21.3C667.5,1367.6,668.7,1364.5,669.5,1361.4
			z"/>
		<path class="st11" d="M128.2,31.4c8.6-0.5,17.2-0.3,25.8-0.4c37.2,0.1,74.4-0.2,111.7,0.1c7.7,1.3,15.6,0.4,23.4,0.7
			c12.6,0.5,25.3,0.8,38,0c36.7,0,73.4,0,110,0c6.4-0.2,12.9,0.6,19.3-0.7c30.2-0.3,60.4,0,90.6-0.1c18.9,0.1,37.8-0.6,56.6,1.3
			c-5.2,1.8-10.8,0.7-16.1,1.3c-10.4,1.4-21,0-31.4,1.5c-8.7,0.3-17.4,0.7-26,1.1c-15.7-0.1-31.4,0.2-47.1,0.5
			c-7.6,0.7-15.3,0.3-22.9,0.4c-40.1,0.2-80.2,0-120.3,0.3c-9.9,0-19.8,0.8-29.6-0.2c-17.2-0.3-34.5,0.4-51.7-0.6
			c-6.4,0.5-12.8-0.5-19.3,0.3c-18.4-1.1-37-0.2-55.4-1.4c-7.5,0.6-15.1-0.7-22.6-0.4c-10.3-1.6-20.7-0.3-31-1.3
			c-4.6-0.4-9.3,0.1-13.7-1.6C120.3,32,124.2,31.7,128.2,31.4z"/>
		<path class="st12" d="M265.6,31.1c17.1,0.3,34.2,0.1,51.4,0.2c46.4-0.2,92.9,0.2,139.3-0.2c-6.4,1.3-12.9,0.5-19.3,0.7
			c-36.7,0-73.4,0.1-110,0c-12.6,0.7-25.3,0.5-38,0C281.2,31.5,273.3,32.5,265.6,31.1z"/>
		<path class="st12" d="M637.8,41c4.5,1.8,8.7,4.4,12.8,7.1c14.7,10.2,25.5,25.9,30.2,43.1c-1.3,2.5-0.5,5.3-0.1,7.9
			c2.3,12.5,3.1,25.3,3,38c0.3,19.3-0.1,38.7,0.6,58c-0.9,10.3,0.4,20.6-0.2,31c0.5,7.7-0.3,15.4-0.2,23c-0.2,10.7,0.9,21.3,0,31.9
			c0,18,0.8,36,0.1,54c0.6,22.7,0.1,45.4,0.3,68.1c-0.2,11.3,0.3,22.7-0.4,34c-0.6,26.3-0.1,52.6-0.2,79c-0.2,90.7,0.4,181.3,0,272
			c0.3,57.3-0.1,114.7-0.1,172c0.3,57.3-0.1,114.7,0.1,172c-0.1,50.2-0.1,100.3-0.1,150.5c0.3,6.6-0.9,13.1-1.1,19.6l-1.4,0.1
			c0.4-101,0-202.1,0.2-303.2c0-282.7,0-565.4,0-848c-0.2-15,0.8-30.1-2.2-44.9c-1.8-14.9-7.3-29.2-15.3-41.8
			c-3.5-5.2-7.7-10.9-13.9-13c-2.9-2.3-5.5-5.2-9.1-6.5C639.6,43.8,638.7,42.4,637.8,41z"/>
		<path class="st13" d="M88.4,38.6c8.9-3.6,18.4-5.5,27.9-6.4c4.4,1.8,9.1,1.2,13.7,1.6c10.3,0.9,20.7-0.3,31,1.3
			c7.6-0.3,15.1,1,22.6,0.4c18.4,1.2,36.9,0.3,55.4,1.4c6.4-0.8,12.8,0.2,19.3-0.3c17.2,1,34.5,0.3,51.7,0.6
			c9.8,1,19.8,0.2,29.6,0.2c40.1-0.3,80.2-0.1,120.3-0.3c7.6-0.1,15.3,0.2,22.9-0.4c15.7-0.4,31.4-0.6,47.1-0.5
			c8.7-0.4,17.3-0.9,26-1.1c10.4-1.5,21-0.1,31.4-1.5c5.4-0.6,10.9,0.5,16.1-1.3c9.5,0.6,18.8,2.8,27.7,6.2c-4.1,3.3-9.5,3-14.4,3.9
			c-5.5,1.2-11.3-2.7-16.4,0.8c-25.1-2-50.3-1.2-75.5-1c-110.3,0.2-220.6,0-330.9,0c-5-0.3-10.1-0.2-15.1,0
			c-24.7-0.6-49.6-0.8-74.2,1.7C99.4,41.9,93.1,42.3,88.4,38.6z"/>
		<path class="st13" d="M104.6,1395.6c7.5,0.5,14.9,2.1,22.5,2.1c88.9,0.2,177.8-0.1,266.6-0.1c13.9,1.1,27.8-0.7,41.7,0.7
			c-12.7,1.8-25.6,0-38.4,0.6c-0.7,0.3-2.1,0.8-2.8,1.1l-0.3,0.1c-4.3-0.9-8.6-0.5-12.9-0.5c-14.7-0.1-29.3-0.1-44,0
			c-3.7,0-7.4-0.2-11,0.6l-0.4-0.1c-1.5-0.5-3-1-4.5-1c-39.7,0.3-79.4,0-119.1,0c-29.7-1-59.5,1.5-89.1-1.7
			C110,1397.3,107.2,1396.7,104.6,1395.6z"/>
		<path class="st14" d="M637.7,33.3l0.9,0c5.4-0.3,10.8,1.2,16.2,1.1c1.1,0.6,2.1,1.2,3.1,1.8c-2,0.2-4,0.3-6,0.3
			c-0.3,1.6,0,3.3,0.5,4.8C647.9,38,642.7,35.7,637.7,33.3z"/>
		<path class="st15" d="M72.6,34.8c2.5-0.3,5-0.4,7.5-0.6c-7.5,3.7-14.8,8.1-21,13.7l0.4-1.4c0.1-0.4,0.4-1.3,0.5-1.8
			c-1-1.3-2-2.7-3-4c0.9-0.7,1.7-1.3,2.7-1.9C63.9,37.6,68.4,36.6,72.6,34.8z"/>
		<path class="st16" d="M652,36.5c2,0,4-0.1,6-0.3c8.9,6.4,17.1,14.3,22.4,24c-7.1-6.1-14-13-22.8-16.6c-0.5,0-1.6-0.1-2.1-0.2
			c-1-0.7-2-1.4-3-2.1C651.9,39.8,651.7,38.1,652,36.5z"/>
		<path class="st17" d="M84.1,40.4c1.5-0.6,2.9-1.2,4.4-1.8c4.6,3.6,11,3.3,16.3,5.2c-4.1,1.5-8.5,2.1-12.7,3.4
			C88.2,47,84.2,44.7,84.1,40.4z"/>
		<path class="st18" d="M631.2,38.5c1.6,0.6,3.2,1.2,4.8,1.9c-4,5.5-11.1,6-17.4,6.1c-6-1.7-12.2-2.1-18.2-3.4
			c5-3.5,10.9,0.4,16.4-0.8C621.7,41.5,627.2,41.7,631.2,38.5z"/>
		<path class="st19" d="M39.7,61.5c4-8.1,10.1-15.1,17.1-20.7c1,1.4,2,2.7,3,4c-0.1,0.4-0.3,1.3-0.5,1.8
			c-5.3,2.8-10.5,5.9-14.6,10.3C43.3,58.5,41.6,60.1,39.7,61.5z"/>
		<path class="st20" d="M67.3,49.8c4.8-3.5,9.9-6.7,15.4-9c-0.8,1-1.5,2-2.2,3.1c-6,0.4-9.5,5.8-14.3,8.6
			c-7.1,4.4-11.4,12-15.9,18.8c-3.5,5.8-7,11.9-8.1,18.8c-1.3,7.6-3.5,15.1-4.2,22.9c-1.3,15-1.7,30-1.2,45.1c1.4,17-0.2,34,0.6,51
			c0,4-0.7,7.9-0.5,11.9c1,12.3,0.3,24.7,0.5,37.1c0.2,5-0.6,10-0.7,15c0,47,0,94,0,141c-0.2,6,0.9,12,0.7,18
			c0,31.6,0.1,63.3-0.1,94.9c-0.2,10,0.5,20.1-0.5,30c-0.8,11.3,0.5,22.7-0.2,34c1.1,21.3,0.5,42.7,0.7,64c0,3-0.3,6-0.5,9
			c-0.2,3.7,0.7,7.3,0.5,11c-1.1,10,0.3,20,0,30c-0.2,6.5,0.7,13.1-0.8,19.5c-0.9-4-0.5-8.2-2.3-11.9c-0.2-51.5,0-103.1-0.1-154.6
			c-0.2-74.4,0.1-148.7,0-223.1c0-56-0.1-111.9,0-167.9c0.3-21.3-0.9-42.9,2.6-64c0.3-1.8,0.6-3.5,0.9-5.3
			C41.8,79.1,51.8,61.3,67.3,49.8z"/>
		<path class="st20" d="M680.6,99.1c-0.4-2.6-1.3-5.4,0.1-7.9c1,3.5,1.8,7,2.6,10.6c0.7,5.5,1.5,11.1,1.9,16.6
			c1,13.5,0.7,27.1,0.7,40.7c0,108-0.1,216,0.1,323.9c-0.2,215,0,430-0.1,644.9c-0.1,52.7,0.3,105.5-0.1,158.2
			c-0.8-1.2-1.5-2.5-2.2-3.7c-0.1-50.2,0-100.3,0.1-150.5c-0.3-57.3,0.2-114.7-0.1-172c0-57.3,0.4-114.7,0.1-172
			c0.3-90.7-0.3-181.3,0-272c0.1-26.3-0.4-52.6,0.2-79c0.7-11.3,0.2-22.7,0.4-34c-0.2-22.7,0.3-45.4-0.3-68.1c0.7-18-0.1-36-0.1-54
			c0.9-10.7-0.2-21.3,0-31.9c-0.1-7.7,0.7-15.4,0.2-23c0.6-10.3-0.6-20.6,0.2-31c-0.7-19.3-0.4-38.7-0.6-58
			C683.7,124.3,683,111.6,680.6,99.1z"/>
		<path d="M104.8,43.8c24.6-2.4,49.5-2.3,74.2-1.7c5-0.3,10.1-0.3,15.1,0c110.3,0,220.6,0.1,330.9,0c25.2-0.2,50.4-1,75.5,1
			c6,1.3,12.2,1.8,18.2,3.4c6.3,1.5,12.1,5.1,18.6,5.3c0.6-2.2,1.3-4.4,2.8-6.2c10.8,11.8,21.2,24.7,26.5,40
			c7.5,20.6,7,42.8,6.9,64.4c-0.2,326.3-0.1,652.6-0.1,979c0,50.3,0.1,100.7,0,151c-0.1,20.2-1.7,41.3-11.1,59.6
			c-4.4,8.9-10.6,16.6-16.9,24.2c-0.3,0.3-0.8,1-1.1,1.4c-3.7-2.2-8.1-2.4-12.1-0.8c-5.8,2.1-11.7,3.8-17.6,5.5
			c-13.1,2.4-26.4,3-39.7,3c-7.4,0.2-14.9-0.3-22.3,0.4c-57.6-0.6-115.1-0.4-172.7-0.4c-51.3,0-102.7,0-154,0
			c-18.2,0.5-36.4,0.3-54.6,0.4c-10.1-0.9-20.2-0.1-30.3-0.4c-12.1,0.1-24.2-0.4-36.3-1.8c-5.3-1.5-10.5-3.6-16-4.7
			c-3.5-0.7-6.6,1.3-9.8,2.4c-0.8-1-1.6-2-2.4-2.9c-6.3-7.9-13.1-15.5-17.7-24.6c-9.7-17.7-11.6-38.3-12-58.2
			c-0.2-21.3,0-42.7-0.1-64c0.1-360.3,0-720.7-0.1-1081c0.2-17.8,0.8-36.1,7.1-53c4-11.5,11.2-21.4,18.5-31c2.6-3,5.4-5.7,7.5-9.1
			c1,1.6,1.6,3.3,1.9,5.1c3.6-0.3,6.9-1.7,10.3-2.9C96.3,46,100.6,45.3,104.8,43.8z M108.5,55.7c-15.5,3-29.7,12.1-38.8,25
			C62.1,91.1,58,104.1,58,117c0,389,0,778,0,1167c0.1,10.7-0.8,21.7,2.4,32.1c5.7,20.8,23.1,37.9,44.1,43.3
			c10.2,2.9,21,1.9,31.5,2.1c154,0,308,0,462.1,0c10.5,0.2,21.1-2.2,30.4-7.1c21.4-10.8,34.9-34.6,33.7-58.5c0-390.3,0-780.6,0-1171
			c0.1-8.7,0-17.5-2.6-25.9c-6.1-21-24-38-45.3-42.9c-8.9-2.3-18.1-1.6-27.2-1.7c-16.3,0-32.6,0-48.9,0c-5.5-0.2-10.5,4.9-10,10.4
			c0.2,8.7-2.4,17.5-7.8,24.3c-6.8,9-17.9,14.6-29.2,14.7c-87,0-174,0-261,0c-8.1,0.1-16.2-2.4-22.7-7.3
			c-8.8-6.4-14.6-16.8-15.2-27.7c-0.2-2.3,0-4.7-0.4-7c-1-4.3-5.2-7.6-9.7-7.5c-17,0-34,0-51,0C123.5,54.5,115.9,54.1,108.5,55.7z
			 M424.3,73.7c0.8,1.4,1.5,3.6,3.3,3.9c3.3,2.7,8.1,3.1,11.8,0.9c4.9-2.6,6.4-9.6,3.2-14c0.7-1.5-1-2.3-1.9-3
			c-2.5-1.7-5.6-2.9-8.6-2.2C425.6,59.9,421.1,67.9,424.3,73.7z M323.2,65.3c-1.5,0.1-3.6-0.3-4.5,1.4c-2.2,3.7,0.8,9.2,5.3,9
			c23,0.1,46-0.1,69,0.1c2-0.1,4.1,0.2,5.9-0.7c4.2-1.5,4.3-8.5,0.6-10.6c-3.5,0.2-7.3-1.1-10.6,0.4c-3.8,1.5-7.7-2.1-11.5,0.2
			c-2.3-0.7-4.8-1.4-6.9,0.1c-2.3-1.5-4.7,0-7.1,0.1c-2,0.2-3.8-1.7-5.8-0.6c-3.1,1.3-6.3-0.7-9.5-0.4c-3.4-0.4-6.7,1.8-10.1,0.6
			c-1.6-0.8-3.4-0.6-4.9,0.3C330,63.1,326.7,65.7,323.2,65.3z"/>
		<path d="M685.3,118.4c0.3-0.3,1-1,1.3-1.3c0.8,16.5-0.4,33,0.1,49.5c-0.2,54.1,0.2,108.3-0.1,162.4c0.1,50-0.3,100,0.4,150
			c-0.1,25-0.3,50-0.4,75c-0.5,7,1.1,14-0.1,20.9c0,66.3,0,132.7,0.2,199c0.3,20.7-0.5,41.3-0.2,62c0.3,107.7,0.3,215.3,0.1,323
			c0.2,31.3,0.2,62.7,0.1,94c-0.3,15,1.1,30-0.1,44.9c-0.3-0.3-1-1-1.3-1.3c0.1-3.5,0.4-7,0.6-10.5c0.4-52.7,0-105.5,0.1-158.2
			c0.1-215-0.1-430,0.1-644.9c-0.2-108-0.1-216-0.1-323.9C685.9,145.5,686.3,131.9,685.3,118.4z"/>
		<path class="st21" d="M655.4,43.4c0.5,0,1.6,0.1,2.1,0.2c8.8,3.7,15.6,10.5,22.8,16.6c1.3,1.8,2.6,3.6,3.8,5.5
			c-4.7-0.6-7-6.1-11.8-6C667.4,53.6,661.8,48,655.4,43.4z"/>
		<path class="st22" d="M66.3,52.5c4.8-2.8,8.3-8.3,14.3-8.6c-0.2,0.3-0.5,0.8-0.6,1.1c-2.1,3.3-5,6.1-7.5,9.1c-2,1.1-4,2.2-5.4,4.1
			c-5.6,7.2-11.1,14.7-14.5,23.3c-3,7.9-6.2,15.8-6.9,24.3c-1.9,18.4-1.7,36.9-1.8,55.3c0.1,37.3-0.1,74.7,0.1,112
			c0.4,6,0.3,12,0,18c0.1,16-0.2,32,0.2,48c-0.7,24,0.3,48-0.1,71.9c0.5,7.7-0.3,15.3-0.1,23c0.6,27.7-0.5,55.4,0.4,83.1
			c0.3,13.7-1,27.4-0.1,41c0.5,9.3-0.9,18.6-0.1,28c-0.1,29.7,0.4,59.3-0.1,89c1,12.7-0.6,25.3,0.3,38c0,14.4-0.4,28.7,0,43
			c-0.4,5.6-0.5,11.3-0.1,16.9c-0.8,19.7,0.8,39.4-0.2,59.1c0.4,14,0.4,28,0.1,42c0.4,29,0.1,58,0.2,87c-0.7,12,0.6,24-0.3,35.9
			c0.6,30.7,0.2,61.4,0.3,92.1c0,59.3,0,118.6,0,178c0,10.6,0,21.3,0.4,31.9c1.2,8.2,1.6,16.5,4.2,24.4
			c3.6,13.6,10.5,26.4,20.5,36.4c2.1,2.3,4.4,4.5,7.2,6.2c0.8,0.9,1.6,1.9,2.4,2.9c1.3,1.7,2.4,3.6,3.4,5.5c-0.6,0-1.7-0.1-2.3-0.1
			c-1.4-0.7-2.8-1.5-4.2-2.4l1.8-0.6c-4.5-4.5-10.2-7.7-14.1-12.8c-9.3-9.7-14.8-22.2-18.8-34.8c-3.6-15.2-4.4-30.9-4.3-46.5
			c0-382.3-0.1-764.7-0.1-1147c-0.2-6.2,0.7-12.4,1-18.6c1-17,6.7-33.5,16.5-47.4C60.7,60.1,64.4,56.9,66.3,52.5z"/>
		<path class="st22" d="M698.3,487.3c0.3,0,1,0,1.3,0c0.8,28.4-0.1,56.8,0.5,85.2c-0.2,29.4-0.2,58.8-0.1,88.2
			c0.3,45.4-0.2,90.8,0,136.3c0.4,30.3,0.1,60.6,0.1,90.9c-0.6,50.4,0.4,100.7-0.2,151.1c-0.2,30.3,0.1,60.7,0.2,91
			c0.3,22.3-0.4,44.6-0.3,66.9c0,20.6-0.2,41.3,0.1,61.9c0,3.1-0.1,6.3-0.1,9.4c-0.4,8.9,0,17.9-0.5,26.8c-0.2-8.8,0-17.5-0.4-26.3
			c-0.1-3.4-0.2-6.7-0.2-10.1c-0.1-110.6,0-221.2-0.1-331.8c-0.1-66,0.2-132,0-198c0-49.2,0.1-98.3-0.1-147.5
			c0.1-27.5,0.2-55,0.1-82.5C698.6,495.1,698.9,491.2,698.3,487.3z"/>
		<path class="st23" d="M640.9,44.8c3.6,1.3,6.2,4.2,9.1,6.5c4,5.6,8.6,10.9,12.6,16.6c2.8,6.9,6.8,13.3,8.9,20.6
			c2.2,7.8,3.7,15.8,4.9,23.8c0.8,13.6,0.4,27.2,0.4,40.7c-0.1,375-0.1,750.1-0.1,1125.1c0.2,11.7-0.8,23.5-2.5,35.1
			c-1.5,10-5.3,19.4-9.6,28.5c-4,7.3-9.2,14.1-15,20c-1.1,1.2-2.7,1.5-4.1,2.1c6.3-7.6,12.5-15.4,16.9-24.2
			c9.4-18.3,11-39.3,11.1-59.6c0.1-50.3,0-100.6,0-151c0-326.3-0.1-652.7,0.1-979c0.1-21.6,0.5-43.8-6.9-64.4
			c-5.3-15.3-15.7-28.2-26.5-40L640.9,44.8z"/>
		<path class="st24" d="M654.2,45.2c14.4,10.7,25.9,25.9,30.5,43.4c-2.5,4.1,0.2,8.9-1.3,13.2c-0.8-3.5-1.6-7.1-2.6-10.6
			c-4.7-17.3-15.4-32.9-30.2-43.1C651.7,47.1,653,46.2,654.2,45.2z"/>
		<path class="st25" d="M44.8,56.8c4.1-4.4,9.3-7.5,14.6-10.3L59,47.9c-6.8,5.9-12.6,13-17.3,20.8c-0.7,0-2.1,0.1-2.8,0.1
			c-2.7,3.9-5.6,7.6-8.9,11c0-0.4,0-1.3,0-1.8c2.6-5.8,5.5-11.6,9.6-16.6C41.6,60.1,43.3,58.5,44.8,56.8z"/>
		<path class="st26" d="M650.1,51.3c6.2,2.1,10.3,7.8,13.9,13c8.1,12.6,13.6,26.9,15.3,41.8c2.9,14.8,2,29.9,2.2,44.9
			c0,282.7-0.1,565.4,0,848c-0.1,101.1,0.2,202.1-0.2,303.2c-0.8,9.8-3,19.6-6,29c-1.9,6.5-5.8,12.2-8.9,18.2
			c-2,4.1-6.4,6.7-7.3,11.3c-5.6,5.7-12.4,9.9-19.5,13.5c-0.2-0.4-0.6-1.3-0.9-1.7c0.7-0.8,1.4-1.6,2-2.4
			c8.9-4.2,14.9-12.2,20.6-19.9c9.7-13.5,14.3-29.9,16.7-46.2c1.8-12.9,1.2-26,1.3-39c0-378,0.1-756,0.1-1134
			c0.1-20.4-3.3-41.2-12.9-59.4c-0.8-1.7-2.4-2.7-3.8-3.8C658.7,62.1,654.1,56.9,650.1,51.3z"/>
		<path class="st27" d="M50.4,71.3c4.5-6.8,8.8-14.3,15.9-18.8c-1.9,4.4-5.6,7.6-8.3,11.4c-9.8,13.9-15.5,30.5-16.5,47.4
			c-0.3,6.2-1.1,12.4-1,18.6c0,382.3,0.1,764.7,0.1,1147c-0.1,15.6,0.6,31.3,4.3,46.5c4,12.6,9.5,25.1,18.8,34.8
			c3.9,5.1,9.6,8.3,14.1,12.8l-1.8,0.6c-6.4-3.8-12.6-8.2-17.5-13.8c0.5-2.9-1.9-4.8-3.3-7c-4.6-6-7.7-13-10.2-20.1
			c-8.3-20.2-7.5-42.5-7.5-63.9c-0.2-20,0.5-40-0.4-59.9c0.8-10.4,0.2-20.7,0.4-31.1c0-34.3,0-68.6,0-102.9c0.4-8.3-1.4-16.7-0.4-25
			c0.5-3.7,0.3-7.4-0.1-11.1c0.5-11.3-0.3-22.6,0.5-33.9c0-42.4,0.1-84.7,0-127c-0.4-6.7-1.2-13.3-0.2-20c1-7-1-14,0-21
			c0.4-6,0.5-12.1-0.2-18c-0.6-4.6,0-9.3,0.4-13.9c0.7-6.7-1.2-13.4-0.5-20c1.1-9.6,0.9-19.4-0.1-29c-0.4-5,0.1-10,0.7-14.9
			c0.1-4.8-1-9.6-0.8-14.5c1.5-6.4,0.7-13,0.8-19.5c0.2-10-1.1-20,0-30c0.2-3.7-0.7-7.3-0.5-11c0.2-3,0.5-6,0.5-9
			c-0.2-21.3,0.4-42.7-0.7-64c0.8-11.3-0.5-22.7,0.2-34c1-10,0.3-20,0.5-30c0.2-31.6,0-63.3,0.1-94.9c0.1-6-0.9-12-0.7-18
			c0-47,0-94,0-141c0.1-5,0.9-10,0.7-15c-0.2-12.3,0.5-24.7-0.5-37.1c-0.2-4,0.6-7.9,0.5-11.9c-0.8-17,0.8-34-0.6-51
			c-0.5-15.1-0.1-30.1,1.2-45.1c0.7-7.7,2.9-15.2,4.2-22.9C43.3,83.2,46.9,77.2,50.4,71.3z"/>
		<path class="st28" d="M67,58.1c1.4-1.9,3.4-3,5.4-4.1c-7.3,9.5-14.5,19.5-18.5,31c-6.3,16.9-6.9,35.2-7.1,53
			c0.1,360.3,0.1,720.7,0.1,1081c0,21.3-0.1,42.7,0.1,64c0.4,19.8,2.3,40.5,12,58.2c4.6,9.1,11.3,16.7,17.7,24.6
			c-2.8-1.6-5.1-3.8-7.2-6.2c-9.9-10-16.8-22.8-20.5-36.4c-2.7-7.9-3-16.2-4.2-24.4c-0.4-10.6-0.4-21.3-0.4-31.9
			c0-59.3,0-118.7,0-178c-0.1-30.7,0.3-61.4-0.3-92.1c0.8-12-0.4-24,0.3-35.9c-0.1-29,0.2-58-0.2-87c0.4-14,0.3-28-0.1-42
			c1-19.7-0.7-39.4,0.2-59.1c-0.4-5.6-0.3-11.3,0.1-16.9c-0.4-14.3-0.1-28.7,0-43c-0.9-12.6,0.7-25.3-0.3-38
			c0.5-29.6,0.1-59.3,0.1-89c-0.8-9.3,0.6-18.6,0.1-28c-0.9-13.7,0.4-27.3,0.1-41c-0.9-27.7,0.2-55.4-0.4-83.1
			c-0.2-7.7,0.6-15.4,0.1-23c0.5-24-0.5-48,0.1-71.9c-0.4-16-0.1-32-0.2-48c0.3-6,0.4-12,0-18c-0.1-37.3,0-74.7-0.1-112
			c0.1-18.4-0.1-37,1.8-55.3c0.7-8.5,3.9-16.4,6.9-24.3C55.9,72.8,61.4,65.3,67,58.1z"/>
		<path class="st28" d="M20.6,1171.6l1-0.4c-0.3,1.9-0.3,3.9-0.3,5.8c0.1,24.9-0.2,49.7,0,74.6c-0.5,5.5-0.9,11-0.7,16.6
			c-0.7-0.1-2.2-0.2-2.9-0.3c0-2.9,0.1-5.7,0.1-8.6c0.7-0.3,2.2-0.8,3-1.1c-1.1-12.4-0.2-24.8-0.5-37.2
			C20.1,1204.5,20,1188,20.6,1171.6z"/>
		<path class="st29" d="M672.3,59.8c4.8-0.2,7.1,5.4,11.8,6c3.2,4.9,6.1,10.2,7.8,15.8c-3.4-2.4-5.2-6.4-8.3-9.2
			c-1.1,0.1-2.2,0.2-3.2,0.3C678.1,68.2,675.4,63.9,672.3,59.8z"/>
		<path class="st30" d="M323.2,65.3c3.5,0.4,6.8-2.2,10.2-0.1c1.5-0.9,3.3-1.1,4.9-0.3c3.4,1.3,6.7-1,10.1-0.6
			c3.2-0.4,6.4,1.7,9.5,0.4c2-1,3.8,0.8,5.8,0.6c2.4-0.1,4.7-1.6,7.1-0.1c2.1-1.5,4.6-0.8,6.9-0.1c3.7-2.4,7.6,1.2,11.5-0.2
			c3.3-1.5,7.1-0.3,10.6-0.4c3.7,2.1,3.6,9-0.6,10.6c-1.8,0.9-4,0.7-5.9,0.7c-23-0.1-46,0.1-69-0.1c-4.4,0.2-7.5-5.3-5.3-9
			C319.6,65,321.6,65.4,323.2,65.3z"/>
		<path class="st31" d="M662.6,67.8c1.4,1.1,3,2.1,3.8,3.8c9.7,18.2,13,39,12.9,59.4c0,378-0.1,756-0.1,1134
			c-0.1,13,0.5,26.1-1.3,39c-2.4,16.3-7,32.6-16.7,46.2c-5.7,7.7-11.7,15.7-20.6,19.9c1.2-1.7,2.3-3.3,3.6-4.9
			c0.3-0.3,0.8-1,1.1-1.4c1.4-0.6,3-0.9,4.1-2.1c5.9-6,11-12.7,15-20c4.3-9.1,8.1-18.5,9.6-28.5c1.7-11.6,2.7-23.3,2.5-35.1
			c0.1-375,0.1-750.1,0.1-1125.1c0-13.6,0.3-27.2-0.4-40.7c-1.2-8-2.7-16-4.9-23.8C669.4,81.2,665.5,74.7,662.6,67.8z"/>
		<path class="st32" d="M39,68.9c0.7,0,2.1-0.1,2.8-0.1c-1.9,3.4-3.7,6.9-5.2,10.5c-1.3,0.1-2.5,0.2-3.8,0.3
			c-4.3,5.9-4.6,13.4-7.6,19.9c-0.2-0.5-0.6-1.5-0.8-2c1.5-6.6,3.2-13.1,5.7-19.4c0,0.4,0,1.3,0,1.8C33.4,76.4,36.3,72.8,39,68.9z"
			/>
		<path class="st33" d="M680.5,72.7c1.1-0.1,2.1-0.2,3.2-0.3c3.1,2.8,4.8,6.7,8.3,9.2c8.3,20.9,7.8,43.7,7.5,65.8
			c-0.1,3.1-0.1,6.2,0,9.3c0.3,54.8-0.1,109.5,0.2,164.3c-0.1,6.9,0.2,13.8-0.2,20.7c-0.5,23.1,0,46.2-0.2,69.3
			c0.1,14-0.2,27.9,0.2,41.9c0.4,11.5-0.4,23,0.3,34.5c-0.3,0-1,0-1.3,0c-1.6-9-0.5-18.2-0.9-27.3c0.4-8-1.1-16-0.8-24
			c0-8.7,0-17.4,0-26.1c-0.1-4.3,0.9-8.6,0.2-13c-0.7-6.4,1.4-12.7,0-19c1.1-11.3,0.3-22.6,0.6-34c0.5-25.7,0.1-51.4,0.2-77
			c-0.2-5.3-0.1-10.6,0.7-15.9c0.8-5.4-0.4-10.7-0.7-16.1c-0.2-26,0-51.9,0-77.9c-1.7-0.3-3.5-0.5-5.1-0.7c0.2-3,0.4-6,0.1-8.9
			c1.8-0.4,3.5-0.8,5.3-1.2c0-0.8-0.1-2.3-0.1-3c1.1-8.1,0-16.3,0.2-24.4c0.3-7.1-1.6-14-3-20.9c-1.1-5.2-3-10.3-6.5-14.4
			c-1-1.2-2.6-1.7-4-2.2C683.2,78.4,681.9,75.5,680.5,72.7z M697.7,147.8c-0.4,3-0.6,6.2,0.4,9.1c1.9-3,1.1-6.7,0.6-10
			C698.4,147.1,697.9,147.6,697.7,147.8z"/>
		<path class="st34" d="M32.7,79.6c1.3-0.1,2.5-0.2,3.8-0.3c-10.1,24.6-8.7,51.7-8.8,77.7c0,365.7,0.1,731.4,0,1097.1
			c0.1,26.8-1.7,54.6,8,80.1c-0.6,0.1-1.8,0.3-2.4,0.4c-3.7-4.3-5.1-10-8.1-14.8c-0.8-2.9-0.9-5.9-1.1-8.9c-0.4-0.4-1.3-1.2-1.7-1.6
			c0-1.4-0.4-2.8-0.8-4.2c0.2,0.3,0.7,0.8,0.9,1.1c-0.1-4.8-0.4-9.6-0.9-14.4c1.3-7.3,0.7-14.9-0.3-22.2c1.5-0.5,2.9-1,4.3-1.5
			c0-2.8,0-5.6,0-8.4c-0.9-0.2-2.5-0.6-3.4-0.8c-0.2-0.2-0.5-0.6-0.7-0.9c-0.3-2.1-0.4-4.3-0.5-6.4c-0.1-24.9,0.1-49.7,0-74.6
			c0-1.9,0-3.9,0.3-5.8c1.7-5.6,0.5-11.5,1-17.2c0.9-20.3,1.1-40.7,0.9-61c-0.4-7.3-1.2-14.7-0.4-22c0.9-16.3,0.4-32.7,0.5-49
			c0-60.3,0-120.7-0.2-181c-1.5-17.6-0.5-35.3-0.7-53c1-13.6,0.7-27.3,0.1-41c0.7-10,0.7-20,0.5-30.1c0.1-13,0.3-26,0-39
			c-1-15.3-0.7-30.7-0.3-46c-0.2-9-0.4-18.1-0.3-27.1c1.4-14,0.5-28,0.6-41.9c0.1-14-1.3-28-0.8-41.9c0.4-9,0-18,0.7-27
			c1-20.7-0.7-41.4-0.5-62.1c0.1-9-0.5-18,0.5-26.9c0.7-13.3,0-26.7,0.1-40.1c0.3-22.7,0.3-45.3,0-68c-1.1-8,0.3-16,0-24
			c-0.2-7.2,0.7-14.8-2.3-21.5c0.7-31.4-0.1-62.9,0.3-94.3c0.4-0.1,1.3-0.2,1.7-0.3c1.3-0.1,2.7-0.1,4-0.2c0.4-3.1,0.5-6.3,0.3-9.5
			c-0.6,0-1.9-0.1-2.5-0.1c-0.7,0-2.1-0.1-2.8-0.2c-0.8-10,0.3-19.9,0.6-29.9c0.6-5.9,1.1-11.8,2.6-17.5
			C28.1,93,28.4,85.5,32.7,79.6z"/>
		<path class="st34" d="M15.4,431.7c0.9-0.1,2.7-0.2,3.6-0.3c0.1,0.8,0.3,2.3,0.4,3c0.2,25.2,0.1,50.4,0.1,75.6
			c-0.1,4.6,0.3,9.2-0.8,13.7c-0.8,0-2.5-0.1-3.4-0.1c0.9-18.2,0.3-36.4,0.5-54.7C15.6,456.6,16.1,444.1,15.4,431.7z"/>
		<path class="st35" d="M684.4,81.4c1.4,0.5,3,1,4,2.2c3.5,4.1,5.4,9.2,6.5,14.4c1.5,6.9,3.3,13.8,3,20.9
			c-0.3,8.2,0.8,16.3-0.2,24.4c-1.3-16.7,0.5-34.5-6.8-50.1c-0.7,0.2-2,0.5-2.7,0.7C687.2,89.6,685.9,85.4,684.4,81.4z"/>
		<path class="st36" d="M31.5,111.2c1.5-9.3,1.1-19.8,7-27.6c-0.4,4.7-2.2,9.4-1,14.1c-0.3,1.8-0.6,3.5-0.9,5.3
			c-0.4-0.2-1.2-0.5-1.6-0.6c-2.2,4.5-1.6,9.7-1.9,14.6c0.2,17.7-0.3,35.3-0.6,53c0.2,31.3,0.4,62.5,0.3,93.8
			c-0.4,0.9-0.8,1.8-1.3,2.8c-0.5-0.1-1.5-0.2-2-0.3c0.8-22.7-0.5-45.5,0.2-68.2c0.1-15.7-0.1-31.3-0.1-47
			C29.5,137.7,29.5,124.4,31.5,111.2z"/>
		<path class="st37" d="M683.3,101.8c1.5-4.3-1.1-9,1.3-13.2c6,17.8,5,36.9,6,55.4c0.8,3.3,1.9,6.6,1.3,10
			c-2.8,10.6-0.6,21.6-1.5,32.4c-1.5-7.7-0.5-15.5-0.8-23.2c-1,1.2-2,2.3-3,3.4c-0.5-16.5,0.6-33-0.1-49.5c-0.3,0.3-1,1-1.3,1.3
			C684.9,112.8,684,107.3,683.3,101.8z"/>
		<path class="st38" d="M688.3,93.9c0.7-0.2,2-0.5,2.7-0.7c7.3,15.6,5.5,33.4,6.8,50.1c0,0.8,0.1,2.3,0.1,3
			c-1.8,0.4-3.5,0.8-5.3,1.2C692.5,129.6,692.5,111.4,688.3,93.9z"/>
		<path class="st39" d="M19.1,107.1c0.7-3.7,0.8-7.6,2.1-11.1c-0.3,7.4-2.2,14.6-2.5,22c-0.1,9.9-2,19.8-0.7,29.8
			c0.9-0.2,1.8-0.3,2.7-0.5c-0.1,3.3,0.7,6.5,0.5,9.8c-0.4,31.4,0.5,62.9-0.3,94.3c0,17.8-0.3,35.7,0.3,53.5c0,29.4-0.1,58.7,0,88.1
			c-0.6,13.5-0.2,26.9-0.3,40.4c-0.4,0.3-1.2,0.8-1.6,1c-0.1-0.8-0.3-2.3-0.4-3l1.3-0.1c0.3-11.1,0.2-22.2-0.1-33.3
			c-1.5,0.2-3,0.5-4.5,0.7c0.4,0.6,1.2,1.7,1.6,2.3c-0.7-0.3-2.1-0.9-2.8-1.1c0.1-0.5,0.2-1.5,0.3-2c1.2-0.2,2.4-0.4,3.6-0.6
			l0.3-0.5c0.9-4.6,0.6-9.2,0.6-13.9c0-25.8-0.1-51.7,0-77.5c1.3-4.7,1-9.7,1.1-14.5c-0.1-14.9,0.3-29.9-0.4-44.8
			c0-24.4-0.1-48.8,0.2-73.2c-0.2-5.4,0.5-11-0.4-16.3c-0.4-0.2-1.2-0.6-1.6-0.8c-1,15.1-0.2,30.2-0.4,45.3
			c-0.4-1.7-0.4-3.5-0.4-5.2c0.1-16-0.1-31.9,0.2-47.9C17.2,134.4,17.4,120.7,19.1,107.1z"/>
		<path class="st40" d="M24.4,97.4c0.2,0.5,0.6,1.5,0.8,2c-1.5,5.7-1.9,11.7-2.6,17.5c-0.4,10-1.4,19.9-0.6,29.9
			c0.7,0,2.1,0.1,2.8,0.2c-0.1,2.9-0.1,5.9-0.1,8.8c-0.4,0.3-1.3,0.8-1.7,1c-0.4,0.1-1.3,0.2-1.7,0.3c0.2-3.3-0.6-6.5-0.5-9.8
			C20.8,130.7,20.1,113.7,24.4,97.4z"/>
		<path class="st40" d="M20.5,1269.4c3.5-2.4,2.1-7,1.8-10.6c0.9,0.2,2.5,0.6,3.4,0.8c0,2.8,0,5.6,0,8.4c-1.4,0.5-2.9,1-4.3,1.5
			c1,7.3,1.6,14.9,0.3,22.2c-0.3-0.3-0.8-1-1-1.3C20.5,1283.4,20.7,1276.4,20.5,1269.4z"/>
		<path class="st41" d="M35.1,102.4c0.4,0.2,1.2,0.5,1.6,0.6c-3.4,21.2-2.3,42.7-2.6,64c-0.1,56,0.1,112,0,167.9
			c0.1,74.3-0.2,148.7,0,223.1c0.1,51.5-0.1,103.1,0.1,154.6c-0.1,34.8-0.1,69.6-0.1,104.4c0,147.3,0,294.7,0.1,442
			c0.1,21-0.8,42.4,4.6,62.9c3.4,13.4,10.1,26,19.7,36c5,5.6,11.2,10,17.5,13.8c1.4,0.8,2.7,1.7,4.2,2.4c2.1,1,4.3,1.8,6.5,2.5
			c4.9,1.8,9.9,3.6,15.1,4.6c-2.4,1.7-5.1,0.5-7.6-0.1c-4-1.2-7.9-2.6-11.9-3.8c0.1,0.5,0.3,1.5,0.3,2c18.9,8.6,40,9.9,60.5,9.7
			c27.3,0.5,54.7,0.1,82,0c24.3-0.4,48.6,0.7,73,0.3c29.3-0.1,58.7-1,88-0.4c7.8,0,15.7,0,23.5-0.2c22.8,0.9,45.6,0.6,68.5,0.7
			c27.4,0,54.7-0.1,82.1,0c15.7-0.2,31.4,0.3,46.9-1.7c5.2-0.8,10.6-1.1,15.4-3.5c-5.8-1.3-11.5,0.5-17.3,0.9c-22,1.8-44,0.8-66,1.2
			c-30.3,0-60.7,0-91-0.1c-7.2,0.1-14.5-0.3-21.6,0.3c-9.1-0.6-18.3,0.1-27.4,0c-31,0-62,0.1-93-0.4c-29-0.2-58,0.4-87,0.2
			c-24-0.5-48-0.2-72.1-0.1c-13.4-0.1-27.1,0.1-40.3-2.7c0.6-0.3,1.9-0.8,2.5-1c4.8,0.8,9.6,1.6,14.5,1.5
			c23.1,1.1,46.3,0.6,69.4,0.8c19.8-0.1,39.5,0.3,59.3-0.1c96,0.2,192.1,0.1,288.1,0c18.4,0.2,36.8,0.4,55.2-0.6
			c9.8,0,19.4-1.9,28.9-4.3c5.2-1.3,10.2-3.4,15.1-5.5c7-3.6,13.9-7.8,19.5-13.5c4.1-4,7.9-8.4,11.1-13.2c0.6,1.5,1.2,3.1,1.8,4.7
			c3.5-3.5,5.4-8.1,7.7-12.4c4.7-8.8,7.2-18.6,8.1-28.4c2.1-12.6,2.3-25.5,2.6-38.3c0.3-1.7-0.4-4.3,2-4.8c0.1,18.2,0,36.6-4.3,54.4
			c-1.6,5.5-3.3,10.9-5.6,16.1c-4,8.7-9.3,16.9-15.9,23.9c-6,5.9-12.5,11-19.7,15.4c-1,0.4-1.9,0.8-2.9,1.3c-3.9,1.9-7.9,3.6-12,5.1
			c-20.5,7.1-42.5,6.9-64,6.9c-141-0.1-282,0.1-423,0c-19.3,0-39-0.7-57.4-7c-4.8-1.7-9.4-3.7-13.8-6c-0.2-0.1-0.6-0.3-0.7-0.4
			c-7.3-4.1-13.7-9.5-19.6-15.3c-4.4-4.8-8.2-9.9-11.5-15.5c-2.4-4.1-4.4-8.4-6.1-12.8c-9.7-25.5-7.9-53.3-8-80.1
			c0.6-0.3,1.8-0.9,2.4-1.2c-0.6,10.7,0.1,21.4-0.1,32.1c0.4,10.8,0.4,21.8,3.4,32.2c2.7-2.5,1.3-6.2,1.1-9.4
			c-2.6-18.9-0.7-37.9-1.6-56.8c-0.5-11.6,0.6-23.1-0.1-34.7c0.2-27.1-0.2-54.2,0.3-81.3c0.1-18.7,0.1-37.3-0.2-56
			c0.8-39,0.2-78,0.4-117c0.3-21.7-1-43.3-0.1-65c0.2-32.3-0.1-64.6-0.4-97c-0.4-17.3,0.5-34.7,0-52c1-49.7-0.3-99.4,0.4-149
			c0.3-21.6,0-43.3-0.3-64.9c0-12.7,0-25.4,0.1-38c-0.2-30.7-0.1-61.4,0.3-92.1c-0.4-46.8,0.3-93.5-0.3-140.3
			c0.1-31.3-0.1-62.5-0.3-93.8c0.3-17.7,0.7-35.3,0.6-53C33.5,112.1,32.9,106.9,35.1,102.4z"/>
		<path class="st42" d="M700.4,103.9c0.9,2.6,1.1,5.4,1.3,8.1c1.4,14.9,0.9,29.8,0.9,44.7c-0.8,0-2.3,0.1-3.1,0.1
			c-0.1-3.1-0.1-6.2,0-9.3c0.7,0,2.1-0.1,2.8-0.1C703,132.8,701.5,118.3,700.4,103.9z"/>
		<path class="st43" d="M24.7,147c0.6,0,1.9,0.1,2.5,0.1c0.2,3.2,0.1,6.4-0.3,9.5c-1.3,0.1-2.7,0.1-4,0.2c0.4-0.3,1.3-0.8,1.7-1
			C24.6,152.9,24.6,150,24.7,147z"/>
		<path class="st44" d="M697.7,147.8c0.2-0.2,0.7-0.6,1-0.9c0.5,3.3,1.3,7-0.6,10C697.1,154,697.3,150.8,697.7,147.8z"/>
		<path class="st44" d="M270.6,1381.5c24.1-1,48.3-0.8,72.4-1.5c14.7-0.3,29.3,0.3,44,0c22-0.1,44,0.7,66,0.9
			c10.3,1.2,20.6,0.6,31,1.3c13.3,0.7,26.7,0.7,40.1,1.4c5.4,0.4,11-0.4,16.3,1c-96,0.1-192.1,0.3-288.1,0
			c-12.1-1.3-24.2-0.5-36.3-1.1c11-1,22-0.3,33-1.3C256.1,1381.5,263.4,1382.1,270.6,1381.5z"/>
		<path class="st45" d="M18.1,155.8c0.4,0.2,1.2,0.6,1.6,0.8c1,5.4,0.3,10.9,0.4,16.3c-0.3,24.4-0.2,48.8-0.2,73.2
			c0.7,14.9,0.3,29.9,0.4,44.8c-0.1,4.8,0.2,9.8-1.1,14.5c0.1-3.2-2.9-1.7-4.8-1.7c0.4-0.9,0.9-1.9,1.4-2.7c0.5-0.2,1.5-0.7,2-0.9
			c-0.9-10.3-0.1-20.8-0.4-31.1c0.1-4.8-0.3-9.7,0.3-14.5c-1.5,0.1-3-0.1-4-1.3c0.2-1.9,0.4-3.7,0.5-5.6c0.7,1.6,1.2,3.4,2.7,4.4
			c1.9-1,1.6-3.3,1.6-5.1c-0.2-10.3,0-20.6-0.1-31c-0.2-3.5,0.8-7.3-0.8-10.6c-0.2-0.4-0.5-1.3-0.7-1.7c-0.9,1.7-1.7,3.4-2.2,5.2
			c-0.3-2-0.9-4-1.4-6c1.2-1.2,2.8-1.1,4.3-1.1l0-0.8C18,186,17.2,170.9,18.1,155.8z"/>
		<path class="st45" d="M699.8,1268.3c0.7,0,2.1,0,2.8-0.1c0.3,22.9-0.3,46.5-8.4,68.2c-0.5,1.3-1.1,2.6-1.8,3.8
			c-0.7-1.2-1.4-2.4-2.1-3.6c1.5-3.4,2.9-6.8,3.9-10.4c1.3-4.6,2.8-9.1,3.3-13.8c0-0.2,0.1-0.7,0.1-1c1.2-5.4,1.6-10.9,1.7-16.3
			C699.8,1286.2,699.4,1277.2,699.8,1268.3z"/>
		<path class="st46" d="M699.4,156.7c0.8,0,2.3-0.1,3.1-0.1c0.1,59.2,0,118.4,0.1,177.5c0.7,0.2,2.1,0.5,2.8,0.6
			c0,0.9-0.1,2.5-0.1,3.4c-1.1,0.2-2.3,0.3-3.4,0.5c-0.8,1-1.7,2-2.5,3c0.4-6.9,0.1-13.8,0.2-20.7
			C699.3,266.3,699.7,211.5,699.4,156.7z"/>
		<path class="st46" d="M15.6,398.8c1.5-0.2,3-0.5,4.5-0.7c0.3,11.1,0.3,22.2,0.1,33.3l-1.3,0.1c-0.9,0.1-2.7,0.2-3.6,0.3
			c0.7,12.4,0.3,24.9,0.4,37.3c-0.2,18.2,0.4,36.5-0.5,54.7c0.8,0,2.5,0.1,3.4,0.1c1.1-4.5,0.7-9.1,0.8-13.7
			c0-25.2,0.2-50.4-0.1-75.6c0.4-0.3,1.2-0.8,1.6-1c-0.3,17.2,0.7,34.4,0,51.6c-0.3,108-0.1,216-0.2,323.9c-0.1,92.7,0,185.3,0,278
			c-0.3,28.2,0.4,56.4-0.1,84.6c-0.6,16.5-0.5,32.9-0.5,49.4c0.3,12.4-0.6,24.8,0.5,37.2c-0.7,0.3-2.2,0.8-3,1.1
			c-0.2-54.8-0.1-109.5-0.1-164.3c-0.1-89,0-177.9,0-266.9c0.1-100.1-0.2-200.1,0.1-300.2c-1-0.6-2.1-1.1-3.1-1.7
			c-0.4-32.4,0.1-64.8-0.3-97.2c0.8-1.2,2.6-1.4,3.8-2.1c-1.2-8.5,0.3-17.4-0.8-25.8C16.8,400.5,16,399.3,15.6,398.8z"/>
		<path class="st46" d="M700.1,660.8c0.8,0,1.6,0,2.5,0c0.1,131.4-0.1,262.8,0.1,394.2c-0.1,68,0.1,136,0,203.9c-0.7,0-2,0-2.6,0
			c-0.3-20.6-0.1-41.3-0.1-61.9c-0.1-22.3,0.6-44.6,0.3-66.9c-0.1-30.3-0.3-60.7-0.2-91c0.6-50.4-0.4-100.7,0.2-151.1
			c0.1-30.3,0.3-60.6-0.1-90.9C699.8,751.6,700.4,706.2,700.1,660.8z"/>
		<path class="st47" d="M686.7,166.6c1.1-1.1,2.1-2.2,3-3.4c0.2,7.7-0.7,15.6,0.8,23.2c0.1,2.9,0.1,5.7,0.1,8.6
			c-0.2,106,0.4,212.1-0.2,318.1c-0.5,11.6,0.4,23.3-0.5,34.9c0.3,9-0.5,18,0,27.1c1,14.6,0.5,29.3,0.6,44
			c-0.1,46.7,0.3,93.3,0.1,140c-0.4,28.3,0.3,56.6,0,85c-0.1,136.3,0.1,272.7-0.1,409c0.1,2.3-0.4,5.1,1.9,6.7c0,2.8,0,5.6,0,8.4
			c-2.4,0.5-1.7,3.1-2,4.8c-0.3,12.8-0.5,25.6-2.6,38.3c-1.4-4.2-0.2-9.2-2.6-13c0-0.4,0.1-1.2,0.1-1.6c0.3,0.3,1,1,1.3,1.3
			c1.2-15-0.1-29.9,0.1-44.9c0-31.3,0.1-62.7-0.1-94c0.1-107.7,0.1-215.3-0.1-323c-0.3-20.7,0.6-41.3,0.2-62
			c-0.2-66.3-0.2-132.7-0.2-199c1.3-7-0.3-13.9,0.1-20.9c0-25,0.3-50,0.4-75c-0.7-50-0.4-100-0.4-150
			C686.8,274.9,686.5,220.8,686.7,166.6z"/>
		<path class="st47" d="M575,1372.8c13.3,0,26.6-0.6,39.7-3c5.3,1.6,10.9,0.4,16.2,1.6c2.6,0.5,5.3,3.1,7.8,1
			c0.2,0.4,0.7,1.3,0.9,1.7c-4.9,2.1-9.9,4.2-15.1,5.5c-1.9-1.4-4.2-2.3-6.6-2.4c-11.2-1.1-22.5-2.5-33.7-2.9
			c-10.5-0.4-21-0.1-31.4-1.1C560.1,1372.5,567.5,1373,575,1372.8z"/>
		<path class="st48" d="M13.2,234c0.3-10.3-0.2-20.6,0.3-31c0.5,2,1.1,4,1.4,6c-1.2,9.6-0.3,19.3-0.6,29c-0.3,4.6,0.8,9.2,2.7,13.4
			c2.1-4.1,0.8-9,1.1-13.4c-0.3-10.8,0.6-21.7-0.3-32.5c1.5,3.3,0.6,7.1,0.8,10.6c0.1,10.3-0.1,20.6,0.1,31
			c-0.1,1.8,0.3,4.1-1.6,5.1c-1.5-1-2-2.8-2.7-4.4c-0.2,1.9-0.3,3.7-0.5,5.6C13.2,246.8,13.2,240.4,13.2,234z"/>
		<path class="st49" d="M14.9,209c0.5-1.8,1.4-3.5,2.2-5.2c0.2,0.4,0.5,1.3,0.7,1.7c0.9,10.8,0,21.7,0.3,32.5
			c-0.4,4.5,1,9.3-1.1,13.4c-1.9-4.2-3-8.8-2.7-13.4C14.6,228.3,13.7,218.6,14.9,209z"/>
		<path class="st50" d="M20.9,251.4c3,6.7,2.2,14.4,2.3,21.5c0.4,8-1,16,0,24c0.2,22.7,0.3,45.3,0,68c-0.1,13.4,0.6,26.7-0.1,40.1
			c-1,8.9-0.4,17.9-0.5,26.9c-0.2,20.7,1.5,41.4,0.5,62.1c-0.7,9-0.3,18-0.7,27c-0.5,14,0.9,28,0.8,41.9c0,14,0.9,28-0.6,41.9
			c-0.1,9,0.1,18.1,0.3,27.1c-0.4,15.3-0.7,30.7,0.3,46c0.4,13,0.2,26,0,39c0.2,10,0.1,20.1-0.5,30.1c0.6,13.6,0.9,27.3-0.1,41
			c0.2,17.7-0.8,35.4,0.7,53c0.2,60.3,0.2,120.7,0.2,181c-0.1,16.3,0.4,32.7-0.5,49c-0.8,7.3,0,14.7,0.4,22c0.2,20.3,0,40.7-0.9,61
			c-0.5,5.7,0.7,11.6-1,17.2l-1,0.4c0.4-28.2-0.2-56.4,0.1-84.6c0-92.7,0-185.3,0-278c0.1-108-0.1-216,0.2-323.9
			c0.7-17.2-0.3-34.4,0-51.6c0.1-13.5-0.3-26.9,0.3-40.4c0-29.4,0-58.7,0-88.1C20.6,287.1,20.9,269.3,20.9,251.4z"/>
		<path class="st51" d="M31.7,266.5c0.4-0.9,0.8-1.8,1.3-2.8c0.6,46.8-0.1,93.5,0.3,140.3c-0.3,30.7-0.4,61.4-0.3,92.1
			c-0.3-0.4-1-1.1-1.4-1.5c-0.5,0.1-1.4,0.2-1.9,0.2c0.1-26.3,0.2-52.6-0.1-78.8c0-49.9-0.1-99.9,0.1-149.8
			C30.2,266.3,31.2,266.4,31.7,266.5z"/>
		<path class="st52" d="M13.9,301.9c0.5-0.2,1.5-0.6,2-0.8c-0.6,0.9-1,1.8-1.4,2.7c1.9,0,5-1.5,4.8,1.7c-1.2,0-2.5,0-3.7,0
			c0.4,4.1,0.5,8.3,0.5,12.5c-0.1,19,0,38,0,57c-0.1,6.9,0.2,13.8-0.6,20.6c1.1,0.4,2.2,0.8,3.3,1.3l-0.3,0.5
			c-1.2,0.2-2.4,0.4-3.6,0.6c-0.1,0.5-0.2,1.5-0.3,2c-0.7-13.3-0.3-26.6-0.4-39.9C14,340.6,14.3,321.2,13.9,301.9z"/>
		<path class="st52" d="M253,1376.3c12.7,0,25.4-0.7,38.1-0.7c12-0.6,23.9,0,35.9-0.7c34.4-0.2,68.7,0.1,103,0.3c27,0,54,1.2,81,1.7
			c11.7,0.3,23.3,2.1,35,2c11.8,0.9,23.6,1.6,35.3,2.9c4.7,1,9.7,0.4,14.3,2.3c-18.4,1-36.8,0.8-55.2,0.6c-5.3-1.4-10.9-0.6-16.3-1
			c-13.3-0.7-26.7-0.7-40.1-1.4c-10.3-0.7-20.7,0-31-1.3c-22-0.2-44-1-66-0.9c-14.7,0.3-29.3-0.3-44,0c-24.1,0.7-48.3,0.4-72.4,1.5
			c-7.2,0.6-14.5,0-21.7,0.7c-11,1-22,0.3-33,1.3c12.1,0.6,24.3-0.2,36.3,1.1c-19.8,0.4-39.5,0-59.3,0.1
			c-23.1-0.2-46.3,0.3-69.4-0.8c6-1.2,12.2-0.8,18.3-1.3c16.7-1.1,33.4-1.9,50-3.7c5.4-0.4,10.7,0.1,16.1-0.6
			C223,1376.5,238.1,1377.1,253,1376.3z"/>
		<path class="st53" d="M15.5,305.5c1.3,0,2.5,0,3.7,0c-0.1,25.8,0,51.7,0,77.5c0,4.6,0.3,9.3-0.6,13.9c-1.1-0.4-2.2-0.8-3.3-1.3
			c0.8-6.8,0.6-13.7,0.6-20.6c0-19-0.1-38,0-57C16.1,313.8,15.9,309.7,15.5,305.5z"/>
		<path class="st54" d="M705.4,334.8c0.7,4.7,0.2,9.5,0.4,14.2c0.3,47.6,0.1,95.3,0.2,142.9c0,0.3-0.1,0.9-0.2,1.2
			c-0.5-1.5-1-3-1.5-4.6c-1.1,0-2.2,0-3.2-0.1c-0.1-0.8-0.2-2.5-0.2-3.3c0.7-0.2,2.1-0.7,2.9-0.9c0.1-1.4,0.2-2.8,0.3-4.2
			c0.1-8.5,0.1-17,0.1-25.5c0.1-29.6-0.1-59.2,0.1-88.8c-0.2-7.2,0.7-14.6-0.7-21.7c-0.8,0.1-1.5,0.2-2.2,0.3
			c0.1-1.1,0.2-2.2,0.3-3.2c0.7,0.3,2.2,1,3,1.4c0.3-1.5,0.6-3,0.6-4.5C705.3,337.3,705.4,335.7,705.4,334.8z"/>
		<path class="st55" d="M701.9,338.7c1.1-0.2,2.3-0.3,3.4-0.5c-0.1,1.5-0.3,3-0.6,4.5c-0.7-0.4-2.2-1-3-1.4
			c-0.1,1.1-0.2,2.1-0.3,3.2c-0.7,35.6-0.3,71.3-0.4,107l-0.1,0.8l-1.5,0.5c-0.4-14-0.1-27.9-0.2-41.9c0.2-23.1-0.3-46.2,0.2-69.3
			C700.2,340.7,701.1,339.7,701.9,338.7z"/>
		<path class="st56" d="M701.4,344.6c0.7-0.1,1.5-0.2,2.2-0.3c1.4,7.2,0.5,14.5,0.7,21.7c-0.2,29.6,0,59.2-0.1,88.8
			c-0.5,1-1.1,2.1-1.6,3.1c-0.5-2.1-1.1-4.2-1.6-6.3C701.1,415.9,700.7,380.2,701.4,344.6z"/>
		<path class="st57" d="M701,451.5c0.5,2.1,1,4.2,1.6,6.3c0.5-1,1.1-2.1,1.6-3.1c-0.1,8.5-0.1,17-0.1,25.5c-0.8,0-2.5,0.1-3.3,0.1
			c0.2-9.4-0.3-18.7,0.2-28.1L701,451.5z"/>
		<path class="st58" d="M699.4,452.8l1.5-0.5c-0.4,9.3,0.1,18.7-0.2,28.1c0,1.6,0,3.3,0.1,4.9c0.1,0.8,0.2,2.5,0.2,3.3
			c1.1,0,2.1,0,3.2,0.1c0.5,1.5,0.9,3,1.5,4.6c-1.2,0.4-2.3,0.9-3.4,1.4c0.5,21.8,0,43.6,0.2,65.4c-0.1,3.8,0.1,7.7-0.2,11.5
			c-0.7,3.5-1,7-0.9,10.5c-0.1-3.2-0.7-6.3-1.3-9.5c-0.7-28.4,0.2-56.8-0.5-85.2C699.1,475.9,699.8,464.3,699.4,452.8z"/>
		<path class="st59" d="M700.8,480.4c0.8,0,2.5-0.1,3.3-0.1c-0.1,1.4-0.2,2.8-0.3,4.2c-0.7,0.2-2.1,0.7-2.9,0.9
			C700.8,483.6,700.8,482,700.8,480.4z"/>
		<path class="st60" d="M29.7,494.8c0.5,0,1.4-0.1,1.9-0.2c0.3,0.4,1,1.1,1.4,1.5c-0.1,12.7-0.1,25.4-0.1,38
			c-1.1-0.4-2.1-0.8-3.2-1.1C29.6,520.2,29.9,507.5,29.7,494.8z"/>
		<path class="st61" d="M29.7,533c1.1,0.4,2.1,0.8,3.2,1.1c0.2,21.6,0.5,43.3,0.3,64.9c-0.7,49.7,0.6,99.3-0.4,149
			c0.5,17.3-0.4,34.6,0,52c0.3,32.3,0.6,64.6,0.4,97c-0.9,21.7,0.4,43.3,0.1,65c-0.2,39,0.4,78-0.4,117c0.3,18.7,0.3,37.3,0.2,56
			c-0.5,27.1-0.1,54.2-0.3,81.3c-0.4-2.1-0.9-4.2-1.4-6.3c-0.5,1.8-0.9,3.6-1.4,5.4c-0.7-22.1-0.2-44.3-0.4-66.4
			c0-74.3-0.3-148.6,0-222.9c0.4-7.3,0.4-14.7,0-22c-0.4-70,0.4-140-0.1-210C29.8,640.4,29.4,586.7,29.7,533z"/>
		<path class="st62" d="M701.5,582.1c-0.1-3.5,0.2-7.1,0.9-10.5c0.3,29.7,0.1,59.5,0.1,89.2c-0.8,0-1.6,0-2.5,0
			c-0.1-29.4,0-58.8,0.1-88.2C700.9,575.7,701.4,578.9,701.5,582.1z"/>
		<path class="st63" d="M696.4,572.9c0.3,3,0.8,5.9,2.1,8.6c0.3,49.2,0.1,98.3,0.1,147.5c0.3,66-0.1,132,0,198
			c0.1,110.6-0.1,221.2,0.1,331.8l-1.6,0.1l-1,0c0.1-2.6,0.2-5.2,0.2-7.8c-0.6-27,0.3-54-0.2-81.1c-1.7-15,0.4-30,0.2-45
			c0.2-13-0.9-26-0.7-39.1c-0.2-11.3,0.5-22.7,0.5-34c0.6-29-0.6-57.9,0.3-86.9c-0.6-25.7,0.5-51.4-0.8-77c0-7.7,0-15.4,0.2-23.1
			c1-20-0.3-40,1.3-60c0.2-13.4,0.4-26.7-0.6-40c-0.4-7.7,0-15.4-0.3-23c-0.9-18-0.5-36-0.1-53.9c-0.6-15.3-0.3-30.7-0.4-46
			C695.9,619,695.5,595.9,696.4,572.9z"/>
		<path class="st64" d="M34.2,712.6c1.8,3.7,1.4,8,2.3,11.9c-0.2,4.9,0.9,9.7,0.8,14.5c-0.6,4.9-1,9.9-0.7,14.9
			c1,9.6,1.2,19.4,0.1,29c-0.7,6.7,1.2,13.3,0.5,20c-0.4,4.6-1.1,9.3-0.4,13.9c-0.7,0-2,0.1-2.7,0.1
			C34.1,782.2,34.1,747.4,34.2,712.6z"/>
		<path class="st65" d="M34.2,817c0.7,0,2-0.1,2.7-0.1c0.8,6,0.7,12,0.2,18c-0.9,7,1,14,0,21c-1,6.7-0.2,13.3,0.2,20
			c0.1,42.4,0,84.7,0,127c-0.8,11.3-0.1,22.6-0.5,33.9c0.4,3.7,0.7,7.4,0.1,11.1c-1,8.3,0.8,16.7,0.4,25c0,34.3,0,68.6,0,102.9
			c-0.1,10.4,0.4,20.7-0.4,31.1c0.9,20,0.2,40,0.4,59.9c0,21.4-0.8,43.7,7.5,63.9c2.5,7.1,5.7,14,10.2,20.1c1.4,2.2,3.8,4.1,3.3,7
			c-9.5-10-16.3-22.6-19.7-36c-5.3-20.5-4.4-41.9-4.6-62.9C34.1,1111.7,34.2,964.3,34.2,817z"/>
		<path class="st66" d="M31.4,1210c0.4,2.1,0.9,4.2,1.4,6.3c0.7,11.6-0.4,23.1,0.1,34.7c0.8,18.9-1,38,1.6,56.8
			c0.3,3.2,1.6,6.9-1.1,9.4c-3-10.4-3-21.4-3.4-32.2c0.2-10.7-0.5-21.4,0.1-32.1c0.7-12.5-0.9-25-0.1-37.5
			C30.5,1213.6,31,1211.8,31.4,1210z"/>
		<path class="st67" d="M20.5,1268.1c-0.1-5.5,0.2-11.1,0.7-16.6c0.1,2.1,0.2,4.3,0.5,6.4c0.2,0.2,0.5,0.7,0.7,0.9
			c0.3,3.6,1.7,8.1-1.8,10.6L20.5,1268.1z"/>
		<path class="st68" d="M692.8,1259.1c0.5,0,1.5-0.1,2.1-0.2c-0.2,2.9-0.3,5.8,0,8.7c0.5,0.2,1.4,0.4,1.9,0.6
			c0.5,0.2,1.6,0.5,2.1,0.6c0.4,8.7,0.2,17.5,0.4,26.3c-0.1,5.5-0.5,11-1.7,16.3c-0.4-14,0.1-28.1-0.5-42.2
			c-1.5-0.4-2.9-0.8-4.3-1.1C692.7,1265.2,692.5,1262.1,692.8,1259.1z"/>
		<path class="st69" d="M694.9,1259l1.4-0.1l1,0c-0.1,3.1-0.2,6.3-0.3,9.4c-0.5-0.2-1.5-0.5-1.9-0.6
			C694.6,1264.7,694.7,1261.8,694.9,1259z"/>
		<path class="st70" d="M697.2,1258.8l1.6-0.1c0,3.3,0.1,6.7,0.2,10.1c-0.5-0.2-1.6-0.5-2.1-0.6C697,1265.1,697.1,1262,697.2,1258.8
			z"/>
		<path class="st71" d="M700,1258.9c0.7,0,2,0,2.6,0c0,3.1,0,6.2,0,9.3c-0.7,0-2.1,0.1-2.8,0.1C699.9,1265.1,699.9,1262,700,1258.9z
			"/>
		<path class="st72" d="M17.5,1267.8c0.7,0.1,2.2,0.2,2.9,0.3l0,1.2c0.2,7,0,14.1,0.2,21.1c0.1,4.9-0.2,9.8,1,14.6
			c0.4,1.4,0.7,2.7,0.8,4.2c0.3,6.8,1.9,13.8,4.8,19.9c2,5.8,5,11,8.2,16.2c0.2,0.3,0.5,0.8,0.7,1.1c1,4.8,2.4,9.8,5.8,13.5
			c2.9,3.2,5.4,6.6,8.6,9.6c0.2,0.2,0.7,0.5,0.9,0.7c10.8,9.2,23.1,16.9,36.8,21.1c5.4,1.6,10.8,3.1,16.3,4.2c2.6,1.1,5.4,1.7,8.3,2
			c29.6,3.1,59.4,0.6,89.1,1.7c39.7,0,79.4,0.2,119.1,0c1.6,0,3.1,0.5,4.5,1c-4.8,1-9.7,0.6-14.6,0.7c-48.7,0.1-97.4-0.1-146.1,0.3
			c-22.8-0.7-46.1,1.3-68.5-4.2c-17.1-4-33.4-12-46.1-24.1c-14.8-13.7-24.8-32.3-28.8-52.1C17.6,1303.4,17.5,1285.5,17.5,1267.8z"/>
		<path class="st73" d="M682.6,1302.1c0.2-6.6,1.4-13.1,1.1-19.6c0.7,1.2,1.4,2.5,2.2,3.7c-0.1,3.5-0.4,7-0.6,10.5
			c0,0.4-0.1,1.2-0.1,1.6c-0.8,9.9-2.3,19.9-5.5,29.4C679,1319,683.5,1310.8,682.6,1302.1z"/>
		<path class="st74" d="M20.7,1290.4c0.3,0.3,0.8,1,1,1.3c0.5,4.8,0.8,9.6,0.9,14.4c-0.2-0.3-0.7-0.8-0.9-1.1
			C20.5,1300.3,20.8,1295.3,20.7,1290.4z"/>
		<path class="st75" d="M685.2,1298.3c2.4,3.8,1.2,8.8,2.6,13c-1,9.8-3.5,19.7-8.1,28.4c-2.3,4.3-4.2,8.9-7.7,12.4
			c-0.6-1.6-1.2-3.1-1.8-4.7c3.9-6.2,7.4-12.7,9.5-19.8C682.8,1318.2,684.3,1308.2,685.2,1298.3z"/>
		<path class="st76" d="M681.2,1302.2l1.4-0.1c0.9,8.7-3.6,16.9-3,25.5c-2.1,7-5.5,13.6-9.5,19.8c-3.2,4.8-7,9.2-11.1,13.2
			c0.9-4.6,5.3-7.2,7.3-11.3c3.1-6,7-11.7,8.9-18.2C678.2,1321.7,680.4,1312,681.2,1302.2z"/>
		<path class="st77" d="M22.5,1309.3c0.4,0.4,1.3,1.2,1.7,1.6c0.2,3,0.3,6,1.1,8.9c0.8,3.1,1.7,6.2,2,9.4
			C24.3,1323,22.8,1316.1,22.5,1309.3z"/>
		<path class="st77" d="M51.5,1370.3c6.9,3.3,14,6,21.5,7.6c0.2,0.1,0.6,0.3,0.7,0.4c0.2,1-0.6,2.6,0.7,3.3
			c4.5,3.4,9.8,5.8,13.8,9.9C74.6,1387.2,62.3,1379.4,51.5,1370.3z"/>
		<path class="st78" d="M688.1,1322.6c5.2-0.7,6.4-6.7,9.4-10.1c-0.5,4.7-2,9.3-3.3,13.8c-0.1-0.6-0.4-1.8-0.5-2.4
			c-3.1,4.5-3.4,10.4-7.2,14.6c-1.3,0.1-2.6,0.2-4,0.3C684.9,1333.5,686.5,1328,688.1,1322.6z"/>
		<path class="st79" d="M25.3,1319.8c3,4.7,4.4,10.4,8.1,14.8c0.6-0.1,1.8-0.3,2.4-0.4c1.8,4.4,3.8,8.7,6.1,12.8
			c-2.1-0.6-4.2-1.1-6.3-1.6c-3.2-5.2-6.3-10.4-8.2-16.2C27,1326,26,1322.9,25.3,1319.8z"/>
		<path class="st80" d="M686.5,1338.4c3.8-4.1,4.1-10,7.2-14.6c0.1,0.6,0.4,1.8,0.5,2.4c-1,3.6-2.4,7-3.9,10.4
			c-2.3,4.6-5.3,8.7-8.2,12.9c-3.8,4.3-8,8.3-12.5,11.9c-1,0.4-2,0.8-3,1.2c6.6-7,11.9-15.2,15.9-23.9
			C683.8,1338.6,685.1,1338.5,686.5,1338.4z"/>
		<path class="st81" d="M682,1349.6c2.9-4.2,5.9-8.4,8.2-12.9c0.7,1.2,1.4,2.4,2.1,3.6l0.3,0.6c-6.4,13.7-15.2,26.4-27,35.9
			c-6,4.9-12.6,9.1-19.6,12.5c-2.3,1-4.7,2-6.9,3.1c-4,1.3-8,2.7-12,3.9c-11.5,2.7-23.3,4.5-35.2,4.5c-6.4-0.2-12.6,0.9-19,0.6
			c-10-0.3-20.2,0.6-30.1-0.5c2.6-0.9,5.3-1.1,8-1.1c-2.5-0.2-4.9-0.6-7.3-1.2c26.5-0.9,53.6,2.3,79.6-4.4c5.1-1.2,10.1-2.8,15-4.9
			c4-1.5,7.8-3.4,11.6-5.5c5.6-2.5,10.4-6.2,15.1-10c1.1-0.9,2.1-1.8,3.1-2.7C674.7,1365.3,678.7,1357.5,682,1349.6z"/>
		<path class="st82" d="M35.5,1345.4c2.1,0.5,4.2,1.1,6.3,1.6c3.3,5.5,7.2,10.7,11.5,15.5c-1.4-0.7-2.7-1.4-4-2.3
			c-4.9-4.1-9.3-8.7-13.3-13.8C36,1346.2,35.7,1345.7,35.5,1345.4z"/>
		<path class="st83" d="M36.2,1346.5c4,5,8.3,9.7,13.3,13.8c0.9,2.2,1.5,4.5,2.2,6.8c-0.3,0.6-0.8,1.9-1.1,2.6
			c-3.2-2.9-5.7-6.4-8.6-9.6C38.6,1356.3,37.2,1351.3,36.2,1346.5z"/>
		<path class="st84" d="M49.4,1360.2c1.3,0.8,2.6,1.6,4,2.3c5.9,5.8,12.3,11.2,19.6,15.3c-7.5-1.5-14.7-4.2-21.5-7.6
			c-0.2-0.2-0.7-0.5-0.9-0.7c0.3-0.6,0.8-1.9,1.1-2.6C51,1364.7,50.3,1362.4,49.4,1360.2z"/>
		<path class="st85" d="M646.8,1378c7.2-4.3,13.8-9.5,19.7-15.4c1-0.4,2-0.8,3-1.2c-0.8,3.1-2.1,6.2-1.5,9.4c-1,0.9-2.1,1.8-3.1,2.7
			c-4.4-0.5-8.6,1.5-12.3,3.6C650.7,1377.4,648.8,1377.7,646.8,1378z"/>
		<path class="st86" d="M632.2,1364.3c4-1.6,8.4-1.4,12.1,0.8c-1.3,1.6-2.4,3.2-3.6,4.9c-0.7,0.8-1.4,1.6-2,2.4
			c-2.5,2-5.2-0.6-7.8-1c-5.3-1.1-10.9,0-16.2-1.6C620.5,1368.2,626.4,1366.4,632.2,1364.3z"/>
		<path class="st87" d="M79,1368.7c3.2-1.1,6.3-3.1,9.8-2.4c5.4,1.1,10.6,3.2,16,4.7c-6.2,1.4-12.6,2.2-18.1,5.5
			c-2.2-0.7-4.4-1.5-6.5-2.5c0.6,0,1.7,0.1,2.3,0.1C81.4,1372.3,80.3,1370.5,79,1368.7z"/>
		<path class="st88" d="M104.8,1371.1c12,1.3,24.2,1.9,36.3,1.8c10.1,0.3,20.2-0.5,30.3,0.4c-8.6,1.9-17.6,0.6-26.3,1.5
			c-11.2,1.2-22.7,0.8-33.6,3.9c-3.7,0.9-7.5,0.9-11.3,0.8c0.4,0.4,1.2,1.4,1.6,1.8c-5.2-1.1-10.1-2.8-15.1-4.6
			C92.1,1373.2,98.6,1372.4,104.8,1371.1z"/>
		<path class="st89" d="M171.4,1373.3c18.2-0.1,36.4,0.1,54.6-0.4c51.3,0,102.6,0,154,0c57.5,0,115.1-0.2,172.7,0.4
			c10.4,1,21,0.8,31.4,1.1c11.3,0.4,22.5,1.8,33.7,2.9c2.4,0.1,4.7,1,6.6,2.4c-9.4,2.4-19.1,4.3-28.9,4.3c-4.5-1.9-9.5-1.3-14.3-2.3
			c-11.7-1.3-23.5-1.9-35.3-2.9c-11.7,0.1-23.3-1.7-35-2c-27-0.4-54-1.7-81-1.7c-34.3-0.3-68.7-0.5-103-0.3
			c-11.9,0.7-23.9,0.1-35.9,0.7c-12.7,0.1-25.4,0.8-38.1,0.7c-15,0.9-30,0.3-44.9,2.1c-5.4,0.6-10.7,0.2-16.1,0.6
			c-16.6,1.9-33.4,2.6-50,3.7c-6.1,0.5-12.3,0.1-18.3,1.3c-4.9,0-9.7-0.8-14.5-1.5c-2.5-0.5-4.9-1.3-7.5-1.2
			c-0.4-0.4-1.2-1.4-1.6-1.8c3.8,0.1,7.6,0.2,11.3-0.8c10.9-3.1,22.4-2.8,33.6-3.9C153.8,1373.8,162.7,1375.1,171.4,1373.3z"/>
		<path class="st90" d="M652.6,1377.2c3.7-2.1,7.9-4.1,12.3-3.6c-4.8,3.7-9.6,7.5-15.1,10c2.1-2.5,4.7-4.4,7.3-6.2
			C655.6,1377.3,654.1,1377.2,652.6,1377.2z"/>
		<path class="st91" d="M82.2,1377.3c4,1.2,7.9,2.6,11.9,3.8c2.5,0.7,5.3,1.8,7.6,0.1c2.5-0.1,5,0.7,7.5,1.2c-0.6,0.3-1.9,0.8-2.5,1
			c13.2,2.8,26.9,2.6,40.3,2.7c24-0.1,48-0.5,72.1,0.1c29,0.2,58-0.5,87-0.2c31,0.5,62,0.3,93,0.4c9.1,0.1,18.3-0.6,27.4,0
			c-5.5,1.8-11.6-0.3-16.9,2.3c-7.8,0.2-15.6,0.1-23.5,0.2c-29.3-0.5-58.7,0.3-88,0.4c-24.3,0.4-48.6-0.7-73-0.3
			c-27.3,0.1-54.7,0.6-82,0c-20.5,0.2-41.6-1.1-60.5-9.7C82.4,1378.8,82.3,1377.8,82.2,1377.3z"/>
		<path class="st92" d="M652.6,1377.2c1.5,0,3,0.1,4.5,0.1c-2.7,1.8-5.3,3.7-7.3,6.2c-3.7,2.1-7.6,4-11.6,5.5
			c-0.6-0.1-1.7-0.3-2.3-0.4c4-2.8,8.9-4.2,12.1-7.9c-1.3-0.5-2.7-1-4-1.5c1-0.4,1.9-0.9,2.9-1.3
			C648.8,1377.7,650.7,1377.4,652.6,1377.2z"/>
		<path class="st93" d="M74.5,1381.5c-1.3-0.6-0.5-2.2-0.7-3.3c4.4,2.4,9.1,4.4,13.8,6c-0.1,1.9,1,3.6,2.8,4.4
			c6.9,3.5,14.7,4.6,22.2,5.7c14.8,1.3,29.6-0.1,44.4,0.1c14.3-0.2,28.7,0.1,43,0c7.3-0.1,14.6,1.1,22,0.9c15,0.4,30-0.7,45-0.9
			c14.7-0.1,29.4-0.1,44.1,0.2c10.3,1,20.6,1.7,30.9,1c12.3-0.2,24.7-0.2,37-0.1c11.7-0.3,23.4,0.8,35.1,0
			c24.3-1.6,48.6-0.1,72.9-0.3c15.6-0.2,31.3,0.4,47-0.4c3.1-0.2,6.2,0.2,9.3,0.6c-4.7,0.7-9.5,0.8-14.3,0.7c-29,0.4-58-0.1-87-0.2
			c-8.3-0.2-16.7,1-25,0.8c-7.8,0.2-15.6-0.3-23.3,0.9c-88.9,0-177.8,0.2-266.6,0.1c-7.5,0-15-1.6-22.5-2.1
			c-5.5-1.1-10.9-2.6-16.3-4.2C84.3,1387.3,79,1384.9,74.5,1381.5z"/>
		<path class="st94" d="M632,1384.3c4.1-1.5,8.1-3.2,12-5.1c1.3,0.4,2.7,0.9,4,1.5c-3.2,3.8-8.2,5.1-12.1,7.9
			c0.6,0.1,1.8,0.3,2.3,0.4c-4.9,2-9.9,3.7-15,4.9c-26,6.8-53.1,3.5-79.6,4.4c-36.1-0.2-72.1-0.2-108.2-0.1
			c-13.9-1.4-27.8,0.4-41.7-0.7c7.7-1.2,15.6-0.7,23.3-0.9c8.3,0.2,16.7-1,25-0.8c29,0.1,58,0.6,87,0.2c4.8,0.1,9.6,0,14.3-0.7
			c22.2-0.5,44.6,1.1,66.7-1.6c8.4-2.1,18.3-1.4,24.9-7.8C633.9,1385.4,633,1384.9,632,1384.3z"/>
		<path class="st95" d="M435.4,1398.3c36.1-0.1,72.1-0.1,108.2,0.1c2.4,0.6,4.8,1,7.3,1.2c-2.7,0-5.4,0.2-8,1.1
			c-7.2,0.9-14.6,0.2-21.8,0.5c-28.7,0-57.4-0.2-86.1-0.1c-13.6-1.1-27.3,1.3-40.8-1.1c0.7-0.3,2.1-0.8,2.8-1.1
			C409.7,1398.3,422.6,1400.1,435.4,1398.3z"/>
	</g>
	<circle class="st96" cx="433.9" cy="69.4" r="10.9"/>
	<circle class="st97" cx="434.3" cy="70" r="10"/>
	<circle class="st98" cx="433.9" cy="69.3" r="7.6"/>
	<path class="st99" d="M430,65.3c0,0-4.4,3.6,0,8.2c0,0,1.5,0.7,1.9,0c0.4-0.7,0.6-9.4-0.4-8.7C430.5,65.6,430.8,65.1,430,65.3z"/>
	<path class="st99" d="M438.7,65.6c0,0,3.9,2.6,0,8.3c0,0-1,0.1-1.1-0.6c-0.1-0.8-1.3-4.9-0.6-6.5S438.7,65.6,438.7,65.6z"/>
	<path class="st96" d="M323.4,75.7h73c0,0,5.8-0.4,5.8-6c0-5.6-5.9-5.6-5.9-5.6h-73c0,0-5.4-0.2-5.4,5.8S323.4,75.7,323.4,75.7z"/>
	<path class="st97" d="M328.5,75.8h63.3c0,0,5.1,0,5.1-0.7c0-0.6-3.7-0.6-5.1-0.6c-1.4,0-63.2,0-63.2,0s-4.7,0-4.7,0.7
		C323.9,75.8,328.5,75.8,328.5,75.8z"/>
</g>
<g id="Schermo">
</g>
</svg>
