<?xml version="1.0" encoding="utf-8"?>
<!-- Generator: Adobe Illustrator 23.0.2, SVG Export Plug-In . SVG Version: 6.00 Build 0)  -->
<svg version="1.1" id="Calque_1" xmlns:sketch="http://www.bohemiancoding.com/sketch/ns"
	 xmlns="http://www.w3.org/2000/svg" xmlns:xlink="http://www.w3.org/1999/xlink" x="0px" y="0px" viewBox="0 0 249.9 524.4"
	 style="enable-background:new 0 0 249.9 524.4;" xml:space="preserve">
<style type="text/css">
	.st0{fill-rule:evenodd;clip-rule:evenodd;fill:#231F1F;}
	.st1{fill-rule:evenodd;clip-rule:evenodd;fill:#414042;}
	.st2{fill:none;stroke:#58595B;stroke-width:2;}
</style>
<path class="st0" d="M249.9,106.5V35.1c0-19.4-15.8-35.1-35.2-35.1H35.2C15.8,0,0,15.7,0,35.1v23.7v22.4v25.3v39.6v9.3V195v294.3
	c0,19.4,15.8,35.1,35.2,35.1h179.4c19.5,0,35.2-15.7,35.2-35.1V146.1V106.5z M241.7,463.9c0,1.1-0.9,2.1-2,2.1H10.1
	c-1.1,0-2-0.9-2-2.1V50.1c0-1.1,0.9-2.1,2-2.1h229.5c1.1,0,2,0.9,2,2.1V463.9L241.7,463.9z"/>
<path class="st1" d="M103.9,494.7c0-11.3,9.2-20.4,20.4-20.4c11.3,0,20.4,9.1,20.4,20.4c0,11.3-9.2,20.4-20.4,20.4
	C113,515,103.9,505.9,103.9,494.7L103.9,494.7L103.9,494.7z"/>
<path class="st2" d="M103.9,494.7c0-11.3,9.2-20.4,20.4-20.4c11.3,0,20.4,9.1,20.4,20.4c0,11.3-9.2,20.4-20.4,20.4
	C113,515,103.9,505.9,103.9,494.7L103.9,494.7L103.9,494.7z"/>
</svg>
