<?xml version="1.0" encoding="utf-8"?>
<!-- Generator: Adobe Illustrator 23.0.2, SVG Export Plug-In . SVG Version: 6.00 Build 0)  -->
<svg version="1.1" id="Calque_1" xmlns="http://www.w3.org/2000/svg" xmlns:xlink="http://www.w3.org/1999/xlink" x="0px" y="0px"
	 viewBox="0 0 530 530" style="enable-background:new 0 0 530 530;" xml:space="preserve">
<style type="text/css">
	.st0{fill:url(#SVGID_1_);}
	.st1{fill:#FFFFFF;}
</style>
<linearGradient id="SVGID_1_" gradientUnits="userSpaceOnUse" x1="264.7594" y1="0.3853" x2="264.7594" y2="530.1821">
	<stop  offset="0" style="stop-color:#FB25B4"/>
	<stop  offset="1" style="stop-color:#F21F59"/>
</linearGradient>
<path class="st0" d="M419.7,530.2H109.9c-60.5,0-110-49.5-110-110V110.4c0-60.5,49.5-110,110-110h309.8c60.5,0,110,49.5,110,110
	v309.8C529.7,480.7,480.2,530.2,419.7,530.2z"/>
<g>
	
		<image style="overflow:visible;opacity:0.25;" width="413" height="396" xlink:href="D41A5432.png"  transform="matrix(1 0 0 1 58 57)">
	</image>
	<g>
		<g>
			<path class="st1" d="M174.6,259.5l5.3-0.2c1,0,1.9-0.9,2-1.9l7.6-105.7c0.2-2.8,1.9-4.6,3.4-4.6h38.3v14.2c0,0,0,0,0,0h-1
				c-4.8,0-8.7,3.9-8.7,8.7c0,4.8,3.9,8.7,8.7,8.7h13.1c4.8,0,8.7-3.9,8.7-8.7c0-4.8-3.9-8.7-8.7-8.7h-1c0,0,0,0,0,0v-14.2h67v14.2
				c0,0,0,0,0,0h-1c-4.8,0-8.7,3.9-8.7,8.7c0,4.8,3.9,8.7,8.7,8.7h13.1c4.8,0,8.7-3.9,8.7-8.7c0-4.8-3.9-8.7-8.7-8.7h-1c0,0,0,0,0,0
				v-14.2h38.3c1.5,0,3.2,1.8,3.4,4.6l8.3,115.5c0.2,3,3.9,4.4,6.1,2.3l3.8-3.8c0.7-0.7,1.1-1.7,1-2.8l-8-112
				c-0.6-8.5-6.8-15-14.5-15h-38.3v-18.5c0-24.6-20-44.6-44.6-44.6s-44.6,20-44.6,44.6v18.5h-38.3c-7.7,0-13.9,6.4-14.5,15
				l-7.5,104.8C170.6,257.8,172.4,259.7,174.6,259.5z M242.2,117.4c0-18.5,15-33.5,33.5-33.5s33.5,15,33.5,33.5v18.5h-67V117.4z"/>
			<path class="st1" d="M192.6,387.5c-0.3-0.4-0.6-0.9-0.9-1.3c0,0,0,0,0,0c-0.3-0.4-0.6-0.8-1-1.2c-0.1-0.1-0.2-0.2-0.2-0.3
				c-0.4-0.4-0.7-0.8-1.1-1.2l-61.6-61.6c-0.4-0.4-0.7-0.7-1.1-1.1c-0.1-0.1-0.2-0.2-0.3-0.2c-0.4-0.3-0.8-0.6-1.2-0.9c0,0,0,0,0,0
				c-0.4-0.3-0.9-0.6-1.3-0.9c0,0-0.1,0-0.1-0.1c-0.5-0.3-0.9-0.6-1.4-0.8c0,0,0,0,0,0v0c-3.5-1.9-7.5-2.9-11.6-2.9
				c-6.4,0-12.5,2.5-17,7l-18.5,18.5c-0.9,0.9-1.4,2.1-1.4,3.4s0.5,2.5,1.4,3.4l88.9,88.9c0.9,0.9,2.1,1.4,3.4,1.4
				c1.3,0,2.5-0.5,3.4-1.4l18.5-18.5c4.5-4.5,7-10.5,7-17c0-4.6-1.3-8.9-3.6-12.7C192.7,387.7,192.7,387.6,192.6,387.5z"/>
			<path class="st1" d="M450.2,235.9L450.2,235.9c-3.2-3.2-7.4-4.9-11.9-4.9s-8.8,1.7-11.9,4.9l-49.5,49.5c0,0,0,0,0,0l-3.8,3.8
				c0,0,0,0,0,0l-6.6,6.6c-3.4,3.4-5.2,7.9-5.2,12.7c0,0.1,0,0.2,0,0.3c-0.5,15.5-13.6,27.7-29.1,27.7H276c-3.2,0-6-2.5-6.1-5.6
				c0-1.4,0.4-2.6,1.2-3.6c0.1-0.1,0.2-0.3,0.3-0.4c0,0,0.1-0.1,0.1-0.1c0.1-0.1,0.3-0.3,0.4-0.4c0,0,0,0,0,0
				c0.2-0.1,0.3-0.3,0.5-0.4c0,0,0,0,0,0c0.2-0.1,0.3-0.2,0.5-0.3c0.1,0,0.1-0.1,0.2-0.1c0.1-0.1,0.3-0.1,0.4-0.2
				c0.1,0,0.1-0.1,0.2-0.1c0.1,0,0.3-0.1,0.4-0.1c0.1,0,0.2,0,0.2-0.1c0.1,0,0.3-0.1,0.4-0.1c0.1,0,0.1,0,0.2,0c0.2,0,0.4,0,0.7,0
				h56.6h0.4c0.4,0,0.7,0,1.1,0c0.3,0,0.6-0.1,0.8-0.1c7.6-1,13.9-6.8,14.9-14.5c0.4-2.9,0-5.8-1.1-8.4c-2.6-6.4-8.8-10.7-15.7-10.7
				h-99.2c-4.7,0-9.2-1.8-12.8-5c-10.7-9.6-24.5-15.1-38.8-15.3c-0.4,0-0.8,0-1.2,0c-1.4,0-2.7,0.1-4.1,0.1c0,0,0,0,0,0
				c0,0-0.1,0-0.1,0c-18.3,1.3-34.4,10.8-44.6,25c-3.9,5.4-2.8,12.8,2.1,17.3c0.4,0.3,0.7,0.7,1.1,1l61.6,61.6l0.1,0.1
				c5.7,5.7,14.9,6.4,21.3,1.4c1.1-0.9,2.2-1.8,3.2-2.8c3-2.8,7-4.4,11.2-4.4h100.1c0.3,0,0.5,0,0.8,0c0.1,0,0.2,0,0.3,0
				c0.2,0,0.4,0,0.7-0.1l0.1,0c3.8-0.4,7.4-2.1,10.1-4.8l105.5-105.5c3.2-3.2,4.9-7.4,4.9-11.9S453.4,239.1,450.2,235.9z"/>
		</g>
	</g>
</g>
</svg>
