<?xml version="1.0" encoding="utf-8"?>
<!-- Generator: Adobe Illustrator 23.0.2, SVG Export Plug-In . SVG Version: 6.00 Build 0)  -->
<svg version="1.1" id="Calque_1" xmlns="http://www.w3.org/2000/svg" xmlns:xlink="http://www.w3.org/1999/xlink" x="0px" y="0px"
	 viewBox="0 0 182.1 53.9" style="enable-background:new 0 0 182.1 53.9;" xml:space="preserve">
<style type="text/css">
	.st0{fill:#FFFFFF;}
</style>
<polygon id="shape" class="st0" points="146.5,45.4 36.4,45.4 45.2,54.2 "/>
<path id="n" class="st0" d="M164.1,39.8V22.3c0-3.3,2.3-6,5.6-6s5.6,2.7,5.6,6v17.6h6.8V22.3c0-7.2-4.9-13.1-12.2-13.1
	c-3.3,0-5.8,1.9-5.8,1.9V9.9h-6.8v29.8h6.8V39.8z"/>
<path id="e" class="st0" d="M141.7,9.1c-7.9,0-13.5,6.9-13.5,15.7c0,9.2,7,15.7,14.2,15.7c3.6,0,8.1-1.2,12-6.7l-6-3.5
	c-4.6,6.8-12.4,3.4-13.3-3.5h19.5C156.2,16.2,149.3,9.1,141.7,9.1z M147.6,21h-12.2C136.8,14,146.3,13.6,147.6,21z"/>
<path id="t" class="st0" d="M126,32.7c-0.7,0.4-1.4,0.8-2.3,0.8c-1.1,0-3.2-0.9-3.2-3.6V17h5.8V9.9h-5.8V2.4h-6.8v7.5h-3.6V17h3.6
	v12.8c0,6.7,5,10.6,10.1,10.6c1.9,0,4.5-0.7,6.6-1.9L126,32.7z"/>
<path id="u" class="st0" d="M100.9,9.9v17.6c0,3.3-2.3,6-5.6,6c-3.3,0-5.6-2.7-5.6-6V9.9H83v17.6c0,7.2,4.9,13.1,12.2,13.1
	c3.3,0,5.8-1.9,5.8-1.9v1.1h6.8V9.9H100.9z"/>
<polygon id="k" class="st0" points="70.2,23.9 81.9,9.9 72.4,9.9 64.2,20.3 64.2,0 57.3,0 57.3,39.8 64.2,39.8 64.2,27.5 74.3,39.8 
	83.7,39.8 "/>
<path id="a" class="st0" d="M46.6,9.9v1.3c-2.1-1.3-3.8-2.1-6.4-2.1c-7.7,0-13.6,7-13.6,15.7s5.8,15.7,13.6,15.7
	c2.5,0,4.4-0.8,6.4-2.1v1.3h6.8V9.9H46.6z M40.2,33.4c-3.8,0-6.6-3.7-6.6-8.4s2.7-8.4,6.6-8.4s6.5,3.7,6.5,8.4
	C46.7,29.6,44,33.4,40.2,33.4z"/>
<path id="R" class="st0" d="M7.1,39.8V28.2h4.9l8.7,11.5h8.9L19.1,25.8c3.3-2.3,5.4-6.1,5.4-10.5c0-7.1-5.8-12.8-12.8-12.8H0v37.3
	h7.1V39.8z M7.1,9.5h4.6c3.2,0,5.8,2.6,5.8,5.8s-2.6,5.8-5.8,5.8H7.1V9.5z"/>
</svg>
